<svg preserveAspectRatio="none" width="100%" height="100%" overflow="visible" style="display: block;" viewBox="0 0 1572.47 85" fill="none" xmlns="http://www.w3.org/2000/svg">
<g id="Frame 90">
<path id="Polygon 4" d="M53.2776 8.49999C59.8209 -2.83334 76.1791 -2.83332 82.7224 8.50001L112.167 59.5C118.711 70.8334 110.531 85 97.4449 85H38.5551C25.4685 85 17.2894 70.8333 23.8327 59.5L53.2776 8.49999Z" fill="var(--fill-0, #0A0A0A)"/>
<path id="Polygon 5" d="M80.2776 8.49999C86.8209 -2.83334 103.179 -2.83332 109.722 8.50001L139.167 59.5C145.711 70.8334 137.531 85 124.445 85H65.5551C52.4685 85 44.2894 70.8333 50.8327 59.5L80.2776 8.49999Z" fill="var(--fill-0, #0A0A0A)"/>
<path id="Polygon 6" d="M107.278 8.49999C113.821 -2.83334 130.179 -2.83332 136.722 8.50001L166.167 59.5C172.711 70.8334 164.531 85 151.445 85H92.5551C79.4685 85 71.2894 70.8333 77.8327 59.5L107.278 8.49999Z" fill="var(--fill-0, #0A0A0A)"/>
<path id="Polygon 7" d="M134.278 8.49999C140.821 -2.83334 157.179 -2.83332 163.722 8.50001L193.167 59.5C199.711 70.8334 191.531 85 178.445 85H119.555C106.469 85 98.2894 70.8333 104.833 59.5L134.278 8.49999Z" fill="var(--fill-0, #0A0A0A)"/>
<path id="Polygon 8" d="M161.278 8.49999C167.821 -2.83334 184.179 -2.83332 190.722 8.50001L220.167 59.5C226.711 70.8334 218.531 85 205.445 85H146.555C133.469 85 125.289 70.8333 131.833 59.5L161.278 8.49999Z" fill="var(--fill-0, #0A0A0A)"/>
<path id="Polygon 9" d="M188.278 8.49999C194.821 -2.83334 211.179 -2.83332 217.722 8.50001L247.167 59.5C253.711 70.8334 245.531 85 232.445 85H173.555C160.469 85 152.289 70.8333 158.833 59.5L188.278 8.49999Z" fill="var(--fill-0, #0A0A0A)"/>
<path id="Polygon 10" d="M215.278 8.49999C221.821 -2.83334 238.179 -2.83332 244.722 8.50001L274.167 59.5C280.711 70.8334 272.531 85 259.445 85H200.555C187.469 85 179.289 70.8333 185.833 59.5L215.278 8.49999Z" fill="var(--fill-0, #0A0A0A)"/>
<path id="Polygon 11" d="M242.278 8.49999C248.821 -2.83334 265.179 -2.83332 271.722 8.50001L301.167 59.5C307.711 70.8334 299.531 85 286.445 85H227.555C214.469 85 206.289 70.8333 212.833 59.5L242.278 8.49999Z" fill="var(--fill-0, #0A0A0A)"/>
<path id="Polygon 12" d="M269.278 8.49999C275.821 -2.83334 292.179 -2.83332 298.722 8.50001L328.167 59.5C334.711 70.8334 326.531 85 313.445 85H254.555C241.469 85 233.289 70.8333 239.833 59.5L269.278 8.49999Z" fill="var(--fill-0, #0A0A0A)"/>
<path id="Polygon 13" d="M296.278 8.49999C302.821 -2.83334 319.179 -2.83332 325.722 8.50001L355.167 59.5C361.711 70.8334 353.531 85 340.445 85H281.555C268.469 85 260.289 70.8333 266.833 59.5L296.278 8.49999Z" fill="var(--fill-0, #0A0A0A)"/>
<path id="Polygon 14" d="M323.278 8.49999C329.821 -2.83334 346.179 -2.83332 352.722 8.50001L382.167 59.5C388.711 70.8334 380.531 85 367.445 85H308.555C295.469 85 287.289 70.8333 293.833 59.5L323.278 8.49999Z" fill="var(--fill-0, #0A0A0A)"/>
<path id="Polygon 15" d="M350.278 8.49999C356.821 -2.83334 373.179 -2.83332 379.722 8.50001L409.167 59.5C415.711 70.8334 407.531 85 394.445 85H335.555C322.469 85 314.289 70.8333 320.833 59.5L350.278 8.49999Z" fill="var(--fill-0, #0A0A0A)"/>
<path id="Polygon 16" d="M377.278 8.49999C383.821 -2.83334 400.179 -2.83332 406.722 8.50001L436.167 59.5C442.711 70.8334 434.531 85 421.445 85H362.555C349.469 85 341.289 70.8333 347.833 59.5L377.278 8.49999Z" fill="var(--fill-0, #0A0A0A)"/>
<path id="Polygon 17" d="M404.278 8.49999C410.821 -2.83334 427.179 -2.83332 433.722 8.50001L463.167 59.5C469.711 70.8334 461.531 85 448.445 85H389.555C376.469 85 368.289 70.8333 374.833 59.5L404.278 8.49999Z" fill="var(--fill-0, #0A0A0A)"/>
<path id="Polygon 18" d="M431.278 8.49999C437.821 -2.83334 454.179 -2.83332 460.722 8.50001L490.167 59.5C496.711 70.8334 488.531 85 475.445 85H416.555C403.469 85 395.289 70.8333 401.833 59.5L431.278 8.49999Z" fill="var(--fill-0, #0A0A0A)"/>
<path id="Polygon 19" d="M458.278 8.49999C464.821 -2.83334 481.179 -2.83332 487.722 8.50001L517.167 59.5C523.711 70.8334 515.531 85 502.445 85H443.555C430.469 85 422.289 70.8333 428.833 59.5L458.278 8.49999Z" fill="var(--fill-0, #0A0A0A)"/>
<path id="Polygon 20" d="M485.278 8.49999C491.821 -2.83334 508.179 -2.83332 514.722 8.50001L544.167 59.5C550.711 70.8334 542.531 85 529.445 85H470.555C457.469 85 449.289 70.8333 455.833 59.5L485.278 8.49999Z" fill="var(--fill-0, #0A0A0A)"/>
<path id="Polygon 21" d="M512.278 8.49999C518.821 -2.83334 535.179 -2.83332 541.722 8.50001L571.167 59.5C577.711 70.8334 569.531 85 556.445 85H497.555C484.469 85 476.289 70.8333 482.833 59.5L512.278 8.49999Z" fill="var(--fill-0, #0A0A0A)"/>
<path id="Polygon 22" d="M539.278 8.49999C545.821 -2.83334 562.179 -2.83332 568.722 8.50001L598.167 59.5C604.711 70.8334 596.531 85 583.445 85H524.555C511.469 85 503.289 70.8333 509.833 59.5L539.278 8.49999Z" fill="var(--fill-0, #0A0A0A)"/>
<path id="Polygon 23" d="M566.278 8.49999C572.821 -2.83334 589.179 -2.83332 595.722 8.50001L625.167 59.5C631.711 70.8334 623.531 85 610.445 85H551.555C538.469 85 530.289 70.8333 536.833 59.5L566.278 8.49999Z" fill="var(--fill-0, #0A0A0A)"/>
<path id="Polygon 24" d="M593.278 8.49999C599.821 -2.83334 616.179 -2.83332 622.722 8.50001L652.167 59.5C658.711 70.8334 650.531 85 637.445 85H578.555C565.469 85 557.289 70.8333 563.833 59.5L593.278 8.49999Z" fill="var(--fill-0, #0A0A0A)"/>
<path id="Polygon 25" d="M620.278 8.49999C626.821 -2.83334 643.179 -2.83332 649.722 8.50001L679.167 59.5C685.711 70.8334 677.531 85 664.445 85H605.555C592.469 85 584.289 70.8333 590.833 59.5L620.278 8.49999Z" fill="var(--fill-0, #0A0A0A)"/>
<path id="Polygon 26" d="M647.278 8.49999C653.821 -2.83334 670.179 -2.83332 676.722 8.50001L706.167 59.5C712.711 70.8334 704.531 85 691.445 85H632.555C619.469 85 611.289 70.8333 617.833 59.5L647.278 8.49999Z" fill="var(--fill-0, #0A0A0A)"/>
<path id="Polygon 27" d="M674.278 8.49999C680.821 -2.83334 697.179 -2.83332 703.722 8.50001L733.167 59.5C739.711 70.8334 731.531 85 718.445 85H659.555C646.469 85 638.289 70.8333 644.833 59.5L674.278 8.49999Z" fill="var(--fill-0, #0A0A0A)"/>
<path id="Polygon 28" d="M701.278 8.49999C707.821 -2.83334 724.179 -2.83332 730.722 8.50001L760.167 59.5C766.711 70.8334 758.531 85 745.445 85H686.555C673.469 85 665.289 70.8333 671.833 59.5L701.278 8.49999Z" fill="var(--fill-0, #0A0A0A)"/>
<path id="Polygon 29" d="M728.278 8.49999C734.821 -2.83334 751.179 -2.83332 757.722 8.50001L787.167 59.5C793.711 70.8334 785.531 85 772.445 85H713.555C700.469 85 692.289 70.8333 698.833 59.5L728.278 8.49999Z" fill="var(--fill-0, #0A0A0A)"/>
<path id="Polygon 30" d="M755.278 8.49999C761.821 -2.83334 778.179 -2.83332 784.722 8.50001L814.167 59.5C820.711 70.8334 812.531 85 799.445 85H740.555C727.469 85 719.289 70.8333 725.833 59.5L755.278 8.49999Z" fill="var(--fill-0, #0A0A0A)"/>
<path id="Polygon 31" d="M782.278 8.49999C788.821 -2.83334 805.179 -2.83332 811.722 8.50001L841.167 59.5C847.711 70.8334 839.531 85 826.445 85H767.555C754.469 85 746.289 70.8333 752.833 59.5L782.278 8.49999Z" fill="var(--fill-0, #0A0A0A)"/>
<path id="Polygon 32" d="M809.278 8.49999C815.821 -2.83334 832.179 -2.83332 838.722 8.50001L868.167 59.5C874.711 70.8334 866.531 85 853.445 85H794.555C781.469 85 773.289 70.8333 779.833 59.5L809.278 8.49999Z" fill="var(--fill-0, #0A0A0A)"/>
<path id="Polygon 33" d="M836.278 8.49999C842.821 -2.83334 859.179 -2.83332 865.722 8.50001L895.167 59.5C901.711 70.8334 893.531 85 880.445 85H821.555C808.469 85 800.289 70.8333 806.833 59.5L836.278 8.49999Z" fill="var(--fill-0, #0A0A0A)"/>
<path id="Polygon 34" d="M863.278 8.49999C869.821 -2.83334 886.179 -2.83332 892.722 8.50001L922.167 59.5C928.711 70.8334 920.531 85 907.445 85H848.555C835.469 85 827.289 70.8333 833.833 59.5L863.278 8.49999Z" fill="var(--fill-0, #0A0A0A)"/>
<path id="Polygon 35" d="M890.278 8.49999C896.821 -2.83334 913.179 -2.83332 919.722 8.50001L949.167 59.5C955.711 70.8334 947.531 85 934.445 85H875.555C862.469 85 854.289 70.8333 860.833 59.5L890.278 8.49999Z" fill="var(--fill-0, #0A0A0A)"/>
<path id="Polygon 36" d="M917.278 8.49999C923.821 -2.83334 940.179 -2.83332 946.722 8.50001L976.167 59.5C982.711 70.8334 974.531 85 961.445 85H902.555C889.469 85 881.289 70.8333 887.833 59.5L917.278 8.49999Z" fill="var(--fill-0, #0A0A0A)"/>
<path id="Polygon 37" d="M944.278 8.49999C950.821 -2.83334 967.179 -2.83332 973.722 8.50001L1003.17 59.5C1009.71 70.8334 1001.53 85 988.445 85H929.555C916.469 85 908.289 70.8333 914.833 59.5L944.278 8.49999Z" fill="var(--fill-0, #0A0A0A)"/>
<path id="Polygon 38" d="M971.278 8.49999C977.821 -2.83334 994.179 -2.83332 1000.72 8.50001L1030.17 59.5C1036.71 70.8334 1028.53 85 1015.44 85H956.555C943.469 85 935.289 70.8333 941.833 59.5L971.278 8.49999Z" fill="var(--fill-0, #0A0A0A)"/>
<path id="Polygon 39" d="M998.278 8.49999C1004.82 -2.83334 1021.18 -2.83332 1027.72 8.50001L1057.17 59.5C1063.71 70.8334 1055.53 85 1042.44 85H983.555C970.469 85 962.289 70.8333 968.833 59.5L998.278 8.49999Z" fill="var(--fill-0, #0A0A0A)"/>
<path id="Polygon 40" d="M1025.28 8.49999C1031.82 -2.83334 1048.18 -2.83332 1054.72 8.50001L1084.17 59.5C1090.71 70.8334 1082.53 85 1069.44 85H1010.56C997.469 85 989.289 70.8333 995.833 59.5L1025.28 8.49999Z" fill="var(--fill-0, #0A0A0A)"/>
<path id="Polygon 41" d="M1052.28 8.49999C1058.82 -2.83334 1075.18 -2.83332 1081.72 8.50001L1111.17 59.5C1117.71 70.8334 1109.53 85 1096.44 85H1037.56C1024.47 85 1016.29 70.8333 1022.83 59.5L1052.28 8.49999Z" fill="var(--fill-0, #0A0A0A)"/>
<path id="Polygon 42" d="M1079.28 8.49999C1085.82 -2.83334 1102.18 -2.83332 1108.72 8.50001L1138.17 59.5C1144.71 70.8334 1136.53 85 1123.44 85H1064.56C1051.47 85 1043.29 70.8333 1049.83 59.5L1079.28 8.49999Z" fill="var(--fill-0, #0A0A0A)"/>
<path id="Polygon 43" d="M1106.28 8.49999C1112.82 -2.83334 1129.18 -2.83332 1135.72 8.50001L1165.17 59.5C1171.71 70.8334 1163.53 85 1150.44 85H1091.56C1078.47 85 1070.29 70.8333 1076.83 59.5L1106.28 8.49999Z" fill="var(--fill-0, #0A0A0A)"/>
<path id="Polygon 44" d="M1133.28 8.49999C1139.82 -2.83334 1156.18 -2.83332 1162.72 8.50001L1192.17 59.5C1198.71 70.8334 1190.53 85 1177.44 85H1118.56C1105.47 85 1097.29 70.8333 1103.83 59.5L1133.28 8.49999Z" fill="var(--fill-0, #0A0A0A)"/>
<path id="Polygon 45" d="M1160.28 8.49999C1166.82 -2.83334 1183.18 -2.83332 1189.72 8.50001L1219.17 59.5C1225.71 70.8334 1217.53 85 1204.44 85H1145.56C1132.47 85 1124.29 70.8333 1130.83 59.5L1160.28 8.49999Z" fill="var(--fill-0, #0A0A0A)"/>
<path id="Polygon 46" d="M1187.28 8.49999C1193.82 -2.83334 1210.18 -2.83332 1216.72 8.50001L1246.17 59.5C1252.71 70.8334 1244.53 85 1231.44 85H1172.56C1159.47 85 1151.29 70.8333 1157.83 59.5L1187.28 8.49999Z" fill="var(--fill-0, #0A0A0A)"/>
<path id="Polygon 47" d="M1214.28 8.49999C1220.82 -2.83334 1237.18 -2.83332 1243.72 8.50001L1273.17 59.5C1279.71 70.8334 1271.53 85 1258.44 85H1199.56C1186.47 85 1178.29 70.8333 1184.83 59.5L1214.28 8.49999Z" fill="var(--fill-0, #0A0A0A)"/>
<path id="Polygon 48" d="M1241.28 8.49999C1247.82 -2.83334 1264.18 -2.83332 1270.72 8.50001L1300.17 59.5C1306.71 70.8334 1298.53 85 1285.44 85H1226.56C1213.47 85 1205.29 70.8333 1211.83 59.5L1241.28 8.49999Z" fill="var(--fill-0, #0A0A0A)"/>
<path id="Polygon 49" d="M1268.28 8.49999C1274.82 -2.83334 1291.18 -2.83332 1297.72 8.50001L1327.17 59.5C1333.71 70.8334 1325.53 85 1312.44 85H1253.56C1240.47 85 1232.29 70.8333 1238.83 59.5L1268.28 8.49999Z" fill="var(--fill-0, #0A0A0A)"/>
<path id="Polygon 50" d="M1295.28 8.49999C1301.82 -2.83334 1318.18 -2.83332 1324.72 8.50001L1354.17 59.5C1360.71 70.8334 1352.53 85 1339.44 85H1280.56C1267.47 85 1259.29 70.8333 1265.83 59.5L1295.28 8.49999Z" fill="var(--fill-0, #0A0A0A)"/>
<path id="Polygon 51" d="M1322.28 8.49999C1328.82 -2.83334 1345.18 -2.83332 1351.72 8.50001L1381.17 59.5C1387.71 70.8334 1379.53 85 1366.44 85H1307.56C1294.47 85 1286.29 70.8333 1292.83 59.5L1322.28 8.49999Z" fill="var(--fill-0, #0A0A0A)"/>
<path id="Polygon 52" d="M1349.28 8.49999C1355.82 -2.83334 1372.18 -2.83332 1378.72 8.50001L1408.17 59.5C1414.71 70.8334 1406.53 85 1393.44 85H1334.56C1321.47 85 1313.29 70.8333 1319.83 59.5L1349.28 8.49999Z" fill="var(--fill-0, #0A0A0A)"/>
<path id="Polygon 53" d="M1376.28 8.49999C1382.82 -2.83334 1399.18 -2.83332 1405.72 8.50001L1435.17 59.5C1441.71 70.8334 1433.53 85 1420.44 85H1361.56C1348.47 85 1340.29 70.8333 1346.83 59.5L1376.28 8.49999Z" fill="var(--fill-0, #0A0A0A)"/>
<path id="Polygon 54" d="M1403.28 8.49999C1409.82 -2.83334 1426.18 -2.83332 1432.72 8.50001L1462.17 59.5C1468.71 70.8334 1460.53 85 1447.44 85H1388.56C1375.47 85 1367.29 70.8333 1373.83 59.5L1403.28 8.49999Z" fill="var(--fill-0, #0A0A0A)"/>
<path id="Polygon 55" d="M1430.28 8.49999C1436.82 -2.83334 1453.18 -2.83332 1459.72 8.50001L1489.17 59.5C1495.71 70.8334 1487.53 85 1474.44 85H1415.56C1402.47 85 1394.29 70.8333 1400.83 59.5L1430.28 8.49999Z" fill="var(--fill-0, #0A0A0A)"/>
<path id="Polygon 57" d="M1457.28 8.49999C1463.82 -2.83334 1480.18 -2.83332 1486.72 8.50001L1516.17 59.5C1522.71 70.8334 1514.53 85 1501.44 85H1442.56C1429.47 85 1421.29 70.8333 1427.83 59.5L1457.28 8.49999Z" fill="var(--fill-0, #0A0A0A)"/>
<path id="Polygon 58" d="M1484.28 8.49999C1490.82 -2.83334 1507.18 -2.83332 1513.72 8.50001L1543.17 59.5C1549.71 70.8334 1541.53 85 1528.44 85H1469.56C1456.47 85 1448.29 70.8333 1454.83 59.5L1484.28 8.49999Z" fill="var(--fill-0, #0A0A0A)"/>
<path id="Polygon 56" d="M1511.28 8.49999C1517.82 -2.83334 1534.18 -2.83332 1540.72 8.50001L1570.17 59.5C1576.71 70.8334 1568.53 85 1555.44 85H1496.56C1483.47 85 1475.29 70.8333 1481.83 59.5L1511.28 8.49999Z" fill="var(--fill-0, #0A0A0A)"/>
</g>
</svg>
