<svg preserveAspectRatio="none" width="100%" height="100%" overflow="visible" style="display: block;" viewBox="0 0 1704.54 1579.63" fill="none" xmlns="http://www.w3.org/2000/svg">
<g id="Vector 6" filter="url(#filter0_f_0_157)">
<path d="M692.389 405.694C775.916 396.81 930.22 402.495 1183.28 475.514C1241.33 492.264 1270.24 510.668 1283.03 521.114C1294.19 530.225 1296.58 535.886 1297.76 538.917C1302.15 550.19 1309.6 591.439 1281.06 675.734C1254.02 755.595 1205.45 840.658 1153.9 910.399C1128.68 944.511 1105.92 970.647 1089.4 987.355C1087.22 989.562 1085.29 991.464 1083.6 993.088C943.083 1058.39 692.848 1162.88 445.06 1171.56L424.866 1172.26L404.945 1175.65C404.605 1175.71 404.246 1175.76 403.869 1175.82C414.305 1033.06 482.505 981.679 572.528 837.91C640.69 729.054 669.48 592.323 682.39 501.389C686.972 469.113 690.326 436.826 692.389 405.694ZM680.359 196.505C680.523 197.169 680.684 197.831 680.842 198.492C680.682 197.83 680.522 197.167 680.359 196.505Z" stroke="var(--stroke-0, #161616)" stroke-width="605" stroke-linecap="round"/>
</g>
<defs>
<filter id="filter0_f_0_157" x="1.37007e-09" y="-2.31952e-07" width="1704.54" height="1579.63" filterUnits="userSpaceOnUse" color-interpolation-filters="sRGB">
<feFlood flood-opacity="0" result="BackgroundImageFix"/>
<feBlend mode="normal" in="SourceGraphic" in2="BackgroundImageFix" result="shape"/>
<feGaussianBlur stdDeviation="50" result="effect1_foregroundBlur_0_157"/>
</filter>
</defs>
</svg>
