<svg preserveAspectRatio="none" width="100%" height="100%" overflow="visible" style="display: block;" viewBox="0 0 2257.84 1863.99" fill="none" xmlns="http://www.w3.org/2000/svg">
<g id="Vector 5" filter="url(#filter0_f_0_155)">
<path d="M688.774 604.048C691.784 603.45 695.24 603.208 700.024 604.021C789.803 619.277 842.651 668.456 869.256 698.73C961.316 803.488 1148.65 900.482 1432.96 878.279C1536.11 870.224 1570.88 880.187 1581.69 884.408C1591 888.042 1598.44 892.01 1642.38 934.029C1642.51 934.293 1642.65 934.591 1642.8 934.926C1644.92 939.518 1647.73 947.595 1650.08 959.388C1652.38 970.948 1653.7 983.385 1654.16 995.173C1654.62 1007.2 1654.08 1015.8 1653.73 1019.12L1652.62 1029.73V1040.4C1652.62 1059.11 1648.52 1099.95 1635.08 1140.64C1621.21 1182.64 1605.18 1201.46 1597.43 1207.31C1597.2 1207.42 1591.65 1210.92 1577.97 1216.18C1562.85 1221.99 1542.35 1228.22 1516.38 1234.14C1464.25 1246.01 1399.3 1254.54 1329.6 1258.32C1181.91 1266.33 1053.23 1251.15 998.203 1229.97C787.125 1148.75 670.106 1087.03 636.493 967.715C608.79 869.381 601.755 790.942 603.843 736.58C605.409 695.786 611.582 677.206 612.356 673.984C615.82 669.154 618.693 665.309 621 662.316C633.726 651.932 646.377 639.014 657.874 622.943C658.295 622.471 659.595 621.039 661.87 618.989C665.853 615.401 670.771 611.79 675.987 608.952C681.078 606.183 685.38 604.723 688.774 604.048ZM542.704 701.947C542.208 702.076 541.708 702.204 541.204 702.33C541.689 702.208 542.19 702.081 542.704 701.947ZM543.88 701.639C543.785 701.664 543.691 701.689 543.596 701.714C543.69 701.689 543.785 701.664 543.88 701.639ZM545.262 701.266C545.185 701.287 545.109 701.307 545.032 701.328C545.108 701.307 545.185 701.287 545.262 701.266Z" stroke="var(--stroke-0, #207E8E)" stroke-width="407" stroke-linecap="round"/>
</g>
<defs>
<filter id="filter0_f_0_155" x="-1.22526e-06" y="1.27837e-07" width="2257.84" height="1863.99" filterUnits="userSpaceOnUse" color-interpolation-filters="sRGB">
<feFlood flood-opacity="0" result="BackgroundImageFix"/>
<feBlend mode="normal" in="SourceGraphic" in2="BackgroundImageFix" result="shape"/>
<feGaussianBlur stdDeviation="200" result="effect1_foregroundBlur_0_155"/>
</filter>
</defs>
</svg>
