<svg width="125" height="202" viewBox="0 0 125 202" fill="none" xmlns="http://www.w3.org/2000/svg">
<path opacity="0.2" d="M61.8751 88.375L-18.3411 168.591C-19.5248 169.774 -21.1297 170.439 -22.8032 170.439C-24.4767 170.439 -26.0816 169.774 -27.2653 168.591L-43.591 152.289C-44.774 151.105 -45.4385 149.5 -45.4385 147.827C-45.4385 146.153 -44.774 144.548 -43.591 143.365L36.6251 63.125L61.8751 88.375Z" fill="#817C7C" fill-opacity="0.8"/>
<path d="M118.688 119.938C118.688 121.612 118.023 123.217 116.839 124.401C115.655 125.585 114.049 126.25 112.375 126.25H99.7501V138.875C99.7501 140.549 99.0851 142.155 97.9012 143.339C96.7174 144.522 95.1118 145.188 93.4376 145.188C91.7634 145.188 90.1578 144.522 88.974 143.339C87.7902 142.155 87.1251 140.549 87.1251 138.875V126.25H74.5001C72.8259 126.25 71.2203 125.585 70.0365 124.401C68.8527 123.217 68.1876 121.612 68.1876 119.938C68.1876 118.263 68.8527 116.658 70.0365 115.474C71.2203 114.29 72.8259 113.625 74.5001 113.625H87.1251V101C87.1251 99.3258 87.7902 97.7202 88.974 96.5364C90.1578 95.3526 91.7634 94.6875 93.4376 94.6875C95.1118 94.6875 96.7174 95.3526 97.9012 96.5364C99.0851 97.7202 99.7501 99.3258 99.7501 101V113.625H112.375C114.049 113.625 115.655 114.29 116.839 115.474C118.023 116.658 118.688 118.263 118.688 119.938ZM-32.8124 56.8125H-20.1874V69.4375C-20.1874 71.1117 -19.5223 72.7173 -18.3385 73.9011C-17.1547 75.0849 -15.5491 75.75 -13.8749 75.75C-12.2007 75.75 -10.5951 75.0849 -9.41127 73.9011C-8.22744 72.7173 -7.56237 71.1117 -7.56237 69.4375V56.8125H5.06263C6.7368 56.8125 8.34241 56.1474 9.52623 54.9636C10.7101 53.7798 11.3751 52.1742 11.3751 50.5C11.3751 48.8258 10.7101 47.2202 9.52623 46.0364C8.34241 44.8526 6.7368 44.1875 5.06263 44.1875H-7.56237V31.5625C-7.56237 29.8883 -8.22744 28.2827 -9.41127 27.0989C-10.5951 25.9151 -12.2007 25.25 -13.8749 25.25C-15.5491 25.25 -17.1547 25.9151 -18.3385 27.0989C-19.5223 28.2827 -20.1874 29.8883 -20.1874 31.5625V44.1875H-32.8124C-34.4866 44.1875 -36.0922 44.8526 -37.276 46.0364C-38.4598 47.2202 -39.1249 48.8258 -39.1249 50.5C-39.1249 52.1742 -38.4598 53.7798 -37.276 54.9636C-36.0922 56.1474 -34.4866 56.8125 -32.8124 56.8125ZM68.1876 151.5H61.8751V145.188C61.8751 143.513 61.2101 141.908 60.0262 140.724C58.8424 139.54 57.2368 138.875 55.5626 138.875C53.8884 138.875 52.2828 139.54 51.099 140.724C49.9152 141.908 49.2501 143.513 49.2501 145.188V151.5H42.9376C41.2634 151.5 39.6578 152.165 38.474 153.349C37.2902 154.533 36.6251 156.138 36.6251 157.812C36.6251 159.487 37.2902 161.092 38.474 162.276C39.6578 163.46 41.2634 164.125 42.9376 164.125H49.2501V170.438C49.2501 172.112 49.9152 173.717 51.099 174.901C52.2828 176.085 53.8884 176.75 55.5626 176.75C57.2368 176.75 58.8424 176.085 60.0262 174.901C61.2101 173.717 61.8751 172.112 61.8751 170.438V164.125H68.1876C69.8618 164.125 71.4674 163.46 72.6512 162.276C73.8351 161.092 74.5001 159.487 74.5001 157.812C74.5001 156.138 73.8351 154.533 72.6512 153.349C71.4674 152.165 69.8618 151.5 68.1876 151.5ZM96.0494 63.125L-13.8749 173.049C-16.2423 175.415 -19.4522 176.744 -22.7992 176.744C-26.1461 176.744 -29.3561 175.415 -31.7235 173.049L-48.0571 156.731C-49.2297 155.559 -50.1599 154.167 -50.7946 152.635C-51.4292 151.103 -51.7559 149.461 -51.7559 147.803C-51.7559 146.145 -51.4292 144.503 -50.7946 142.971C-50.1599 141.439 -49.2297 140.047 -48.0571 138.875L61.8751 28.9507C63.0475 27.7781 64.4394 26.8479 65.9713 26.2132C67.5033 25.5786 69.1452 25.2519 70.8034 25.2519C72.4615 25.2519 74.1035 25.5786 75.6354 26.2132C77.1673 26.8479 78.5592 27.7781 79.7316 28.9507L96.0494 45.2685C97.2221 46.4409 98.1523 47.8328 98.7869 49.3647C99.4216 50.8966 99.7482 52.5386 99.7482 54.1968C99.7482 55.8549 99.4216 57.4969 98.7869 59.0288C98.1523 60.5607 97.2221 61.9526 96.0494 63.125ZM52.9429 88.375L36.6251 72.0493L-39.1249 147.799L-22.8071 164.125L52.9429 88.375ZM87.1251 54.2007L70.7994 37.875L45.5494 63.125L61.8751 79.4507L87.1251 54.2007Z" fill="#817C7C" fill-opacity="0.8"/>
</svg>
