<svg width="176" height="249" viewBox="0 0 176 249" fill="none" xmlns="http://www.w3.org/2000/svg">
<path opacity="0.2" d="M144.875 123.693C144.937 130.95 144.157 138.189 142.55 145.266C141.372 150.421 138.478 155.022 134.343 158.318C130.209 161.613 125.078 163.407 119.79 163.406H74.8437C68.6526 163.406 62.715 165.866 58.3372 170.244C53.9594 174.621 51.5 180.559 51.5 186.75C51.4973 190.483 50.5993 194.161 48.8814 197.476C47.1635 200.79 44.6757 203.644 41.6268 205.798C38.578 207.952 35.057 209.344 31.3591 209.856C27.6613 210.368 23.8946 209.986 20.375 208.742C-15.8759 195.932 -41.875 165.167 -41.875 124.5C-41.8763 99.9031 -32.1723 76.299 -14.8709 58.8155C2.43052 41.332 25.9317 31.3813 50.5273 31.1251C101.922 30.6096 144.437 72.3171 144.875 123.693Z" fill="#817C7C" fill-opacity="0.8"/>
<path d="M122.28 52.4165C103.447 33.7666 78.0051 23.3166 51.5 23.3438H50.4592C23.8117 23.618 -1.65121 34.3964 -20.3972 53.3372C-39.1431 72.2781 -49.6577 97.8511 -49.6562 124.5C-49.6562 166.324 -23.803 201.398 17.8072 216.095C22.5004 217.75 27.5218 218.255 32.4506 217.568C37.3793 216.882 42.0715 215.023 46.1338 212.149C50.1961 209.275 53.51 205.468 55.7976 201.049C58.0852 196.63 59.2798 191.726 59.2812 186.75C59.2812 182.623 60.9209 178.664 63.8394 175.746C66.7579 172.827 70.7163 171.188 74.8437 171.188H119.79C126.85 171.222 133.71 168.84 139.23 164.438C144.75 160.036 148.599 153.879 150.137 146.988C151.876 139.33 152.722 131.497 152.656 123.644C152.557 110.352 149.821 97.2125 144.607 84.9859C139.393 72.7592 131.804 61.6889 122.28 52.4165ZM134.925 143.564C134.152 146.997 132.231 150.063 129.479 152.257C126.727 154.45 123.309 155.638 119.79 155.625H74.8437C66.5889 155.625 58.6721 158.904 52.835 164.741C46.998 170.578 43.7187 178.495 43.7187 186.75C43.7151 189.236 43.1161 191.685 41.9719 193.891C40.8276 196.098 39.1714 197.999 37.1419 199.434C35.1123 200.869 32.7685 201.797 30.3066 202.141C27.8447 202.484 25.3363 202.233 22.9914 201.408C-12.2187 188.987 -34.0938 159.516 -34.0938 124.5C-34.095 101.952 -25.1987 80.3137 -9.33767 64.2869C6.52334 48.2602 28.0677 39.1395 50.6149 38.9063H51.4903C74.0382 38.9939 95.6485 47.9401 111.661 63.8157C127.673 79.6913 136.803 101.224 137.084 123.771C137.142 130.428 136.43 137.07 134.964 143.564H134.925ZM63.1719 73.9219C63.1719 76.2304 62.4873 78.487 61.2048 80.4065C59.9223 82.3259 58.0994 83.8219 55.9666 84.7053C53.8339 85.5887 51.487 85.8199 49.2229 85.3695C46.9588 84.9192 44.8791 83.8075 43.2467 82.1752C41.6144 80.5428 40.5027 78.4631 40.0524 76.199C39.602 73.9349 39.8332 71.588 40.7166 69.4553C41.6 67.3225 43.096 65.4996 45.0154 64.2171C46.9349 62.9346 49.1915 62.25 51.5 62.25C54.5956 62.25 57.5643 63.4798 59.7532 65.6687C61.9421 67.8576 63.1719 70.8264 63.1719 73.9219ZM20.375 97.2657C20.375 99.5742 19.6905 101.831 18.4079 103.75C17.1254 105.67 15.3025 107.166 13.1698 108.049C11.037 108.932 8.69017 109.164 6.42604 108.713C4.16192 108.263 2.0822 107.151 0.449856 105.519C-1.18248 103.887 -2.29412 101.807 -2.74448 99.5427C-3.19485 97.2786 -2.9637 94.9318 -2.08029 92.799C-1.19687 90.6663 0.299145 88.8434 2.21857 87.5609C4.138 86.2783 6.39464 85.5938 8.70312 85.5938C11.7987 85.5938 14.7675 86.8235 16.9564 89.0124C19.1453 91.2013 20.375 94.1701 20.375 97.2657ZM20.375 151.734C20.375 154.043 19.6905 156.3 18.4079 158.219C17.1254 160.138 15.3025 161.634 13.1698 162.518C11.037 163.401 8.69017 163.632 6.42604 163.182C4.16192 162.732 2.0822 161.62 0.449856 159.988C-1.18248 158.355 -2.29412 156.276 -2.74448 154.011C-3.19485 151.747 -2.9637 149.401 -2.08029 147.268C-1.19687 145.135 0.299145 143.312 2.21857 142.03C4.138 140.747 6.39464 140.063 8.70312 140.063C11.7987 140.063 14.7675 141.292 16.9564 143.481C19.1453 145.67 20.375 148.639 20.375 151.734ZM105.969 97.2657C105.969 99.5742 105.284 101.831 104.002 103.75C102.719 105.67 100.896 107.166 98.7635 108.049C96.6307 108.932 94.2839 109.164 92.0198 108.713C89.7557 108.263 87.6759 107.151 86.0436 105.519C84.4113 103.887 83.2996 101.807 82.8493 99.5427C82.3989 97.2786 82.63 94.9318 83.5135 92.799C84.3969 90.6663 85.8929 88.8434 87.8123 87.5609C89.7318 86.2783 91.9884 85.5938 94.2969 85.5938C97.3924 85.5938 100.361 86.8235 102.55 89.0124C104.739 91.2013 105.969 94.1701 105.969 97.2657Z" fill="#817C7C" fill-opacity="0.8"/>
</svg>
