<svg width="1374" height="262" viewBox="0 0 1374 262" fill="none" xmlns="http://www.w3.org/2000/svg">
<g filter="url(#filter0_n_117_650)">
<path d="M5 200C8.06667 198.133 10.5333 195.467 12.4 192C14.2667 188.533 15.2 184.8 15.2 180.8V79C15.2 75.1333 14.2667 71.5333 12.4 68.2C10.6667 64.8667 8.2 62.2667 5 60.4H122.2C133.267 60.4 143.267 61.8667 152.2 64.8C161.133 67.6 168.2 72.3333 173.4 79C178.6 85.6667 181.2 94.6 181.2 105.8C181.2 115.933 178.733 124.867 173.8 132.6C168.867 140.2 162 146.2 153.2 150.6C144.533 154.867 134.467 157 123 157H71.6V182C71.6 185.6 72.4667 189.067 74.2 192.4C76.0667 195.6 78.6 198.133 81.8 200H5ZM71.6 128.4H101C106.867 128.4 111.467 127.4 114.8 125.4C118.133 123.4 120.467 120.867 121.8 117.8C123.133 114.6 123.8 111.4 123.8 108.2C123.8 101 121.467 96.1333 116.8 93.6C112.267 90.9333 106.667 89.6 100 89.6H71.6V128.4ZM366.138 200C372.804 196 376.138 189.933 376.138 181.8V78.6C376.138 69.9333 372.738 63.7333 365.938 60H484.138C491.071 60 497.804 60.7333 504.338 62.2C510.871 63.5333 516.671 65.7333 521.738 68.8C526.938 71.7333 531.071 75.6667 534.138 80.6C537.204 85.5333 538.738 91.5333 538.738 98.6C538.738 106.733 536.538 113.733 532.138 119.6C527.871 125.467 521.871 130.267 514.138 134C524.404 136.933 531.871 142 536.538 149.2C539.071 152.933 541.004 157.733 542.338 163.6C543.671 169.333 544.338 176.2 544.338 184.2C544.338 191.4 547.804 196.667 554.738 200H481.138C485.804 197.6 488.138 193.333 488.138 187.2C488.138 176.533 485.938 168.6 481.538 163.4C477.138 158.2 469.738 155.6 459.338 155.6H432.738V181.8C432.738 189.933 436.071 196 442.738 200H366.138ZM432.738 124H466.938C472.671 124 477.604 122.533 481.738 119.6C486.004 116.667 488.138 112.133 488.138 106C488.138 100.667 486.338 96.6 482.738 93.8C479.138 91 474.204 89.6 467.938 89.6H432.738V124ZM564.77 200C571.437 196 574.77 189.933 574.77 181.8V78.6C574.77 69.9333 571.37 63.7333 564.57 60H682.77C689.704 60 696.437 60.7333 702.97 62.2C709.504 63.5333 715.304 65.7333 720.37 68.8C725.57 71.7333 729.704 75.6667 732.77 80.6C735.837 85.5333 737.37 91.5333 737.37 98.6C737.37 106.733 735.17 113.733 730.77 119.6C726.504 125.467 720.504 130.267 712.77 134C723.037 136.933 730.504 142 735.17 149.2C737.704 152.933 739.637 157.733 740.97 163.6C742.304 169.333 742.97 176.2 742.97 184.2C742.97 191.4 746.437 196.667 753.37 200H679.77C684.437 197.6 686.77 193.333 686.77 187.2C686.77 176.533 684.57 168.6 680.17 163.4C675.77 158.2 668.37 155.6 657.97 155.6H631.37V181.8C631.37 189.933 634.704 196 641.37 200H564.77ZM631.37 124H665.57C671.304 124 676.237 122.533 680.37 119.6C684.637 116.667 686.77 112.133 686.77 106C686.77 100.667 684.97 96.6 681.37 93.8C677.77 91 672.837 89.6 666.57 89.6H631.37V124ZM762.813 200C769.479 195.733 772.813 189.667 772.813 181.8V79C772.813 75.2667 771.946 71.6667 770.213 68.2C768.479 64.7333 766.013 62 762.813 60H918.213V102C913.813 96.4 907.479 93.6 899.213 93.6H829.413V113.8H902.213V143.6H829.413V166.6H894.013C900.146 166.6 905.546 165.867 910.213 164.4C914.879 162.8 918.346 159.333 920.613 154V200H762.813ZM930.586 200C937.253 195.733 940.586 189.667 940.586 181.8V79C940.586 75.1333 939.719 71.4667 937.986 68C936.253 64.5333 933.786 61.8667 930.586 60H1007.19C1003.99 61.8667 1001.52 64.5333 999.786 68C998.053 71.4667 997.186 75.0667 997.186 78.8V180.8C997.186 184.8 998.053 188.533 999.786 192C1001.52 195.467 1003.99 198.133 1007.19 200H930.586ZM1017.31 200C1023.98 196 1027.31 189.933 1027.31 181.8V78.6C1027.31 69.9333 1023.91 63.7333 1017.11 60H1135.31C1142.24 60 1148.98 60.7333 1155.51 62.2C1162.04 63.5333 1167.84 65.7333 1172.91 68.8C1178.11 71.7333 1182.24 75.6667 1185.31 80.6C1188.38 85.5333 1189.91 91.5333 1189.91 98.6C1189.91 106.733 1187.71 113.733 1183.31 119.6C1179.04 125.467 1173.04 130.267 1165.31 134C1175.58 136.933 1183.04 142 1187.71 149.2C1190.24 152.933 1192.18 157.733 1193.51 163.6C1194.84 169.333 1195.51 176.2 1195.51 184.2C1195.51 191.4 1198.98 196.667 1205.91 200H1132.31C1136.98 197.6 1139.31 193.333 1139.31 187.2C1139.31 176.533 1137.11 168.6 1132.71 163.4C1128.31 158.2 1120.91 155.6 1110.51 155.6H1083.91V181.8C1083.91 189.933 1087.24 196 1093.91 200H1017.31ZM1083.91 124H1118.11C1123.84 124 1128.78 122.533 1132.91 119.6C1137.18 116.667 1139.31 112.133 1139.31 106C1139.31 100.667 1137.51 96.6 1133.91 93.8C1130.31 91 1125.38 89.6 1119.11 89.6H1083.91V124ZM1151.35 200C1155.62 196.533 1159.95 191.667 1164.35 185.4C1168.88 179.133 1173.48 171.533 1178.15 162.6L1222.35 80.6C1225.02 75 1226.35 71.3333 1226.35 69.6C1226.35 65.3333 1225.08 62.1333 1222.55 60H1286.35L1341.35 162.6C1346.02 171.533 1350.55 179.133 1354.95 185.4C1359.48 191.667 1363.88 196.533 1368.15 200H1296.35C1298.88 198.267 1300.15 194.933 1300.15 190C1300.15 185.867 1298.75 181.333 1295.95 176.4L1292.35 169.8L1223.35 176.4C1220.68 182 1219.35 186.533 1219.35 190C1219.35 194.933 1220.62 198.267 1223.15 200H1151.35ZM1238.35 149L1279.15 145.2L1259.55 109L1238.35 149Z" fill="#E1E1E1"/>
</g>
<g filter="url(#filter1_n_117_650)">
<g clip-path="url(#clip0_117_650)">
<path d="M267.442 22.416C287.059 17.8481 304.735 17.4308 320.469 21.1643C336.168 24.7452 349.169 32.0094 359.474 42.9569C369.932 53.8687 377.096 67.6378 380.968 84.2642C384.235 98.2975 384.914 111.969 383.005 125.278C381.248 138.551 377.102 149.889 370.566 159.29C363.995 168.539 355.575 174.359 345.306 176.75C337.95 178.463 331.5 178.518 325.956 176.914C320.565 175.275 316.441 172.134 313.583 167.493C305.765 180.409 293.274 188.866 276.108 192.863C266.759 195.04 257.868 195.019 249.435 192.802C241.155 190.549 234.016 186.261 228.02 179.939C222.142 173.428 218.066 165.292 215.793 155.53C212.916 143.174 212.97 131.262 215.954 119.793C219.056 108.136 224.743 98.2087 233.013 90.0115C241.248 81.6618 251.419 76.0773 263.527 73.258C281.765 69.0112 296.113 72.3437 306.571 83.2555L305.917 64.8347L331.665 58.8393L334.023 140.784C334.025 142.874 334.204 144.681 334.559 146.207C336.086 152.766 340.298 155.242 347.195 153.636C352.866 152.316 357.19 148.334 360.167 141.691C363.109 134.896 364.699 126.807 364.938 117.424C365.141 107.889 364.213 98.6984 362.153 89.8513C357.358 69.259 346.926 54.6426 330.858 46.0021C314.942 37.3259 294.34 35.9319 269.052 41.8203C248.821 46.531 231.937 55.2062 218.4 67.846C204.98 80.2975 195.773 95.2255 190.777 112.63C185.935 129.999 185.716 148.141 190.121 167.055C193.353 180.936 199.029 192.478 207.151 201.683C215.426 210.852 225.832 217.032 238.37 220.223C250.908 223.414 265.07 223.172 280.856 219.496C297.408 215.642 311.429 209.242 322.918 200.295L331.265 217.407C325.078 222.064 317.736 226.266 309.237 230.014C300.927 233.878 292.481 236.81 283.898 238.808C264.587 243.305 246.952 243.552 230.994 239.549C215.036 235.546 201.775 227.86 191.21 216.49C180.646 205.121 173.357 190.818 169.343 173.582C164.016 150.701 164.49 128.801 170.768 107.882C177.01 86.8104 188.484 68.7816 205.192 53.7956C222.016 38.6215 242.767 28.1617 267.442 22.416ZM277.607 169.116C285.27 167.332 291.723 163.819 296.966 158.578C302.208 153.338 305.752 147.045 307.597 139.701C309.406 132.204 309.369 124.414 307.486 116.329C305.391 107.33 301.093 101.014 294.592 97.3817C288.056 93.5971 280.036 92.8111 270.534 95.0237C263.024 96.7724 256.707 100.173 251.582 105.226C246.575 110.09 243.149 116.194 241.305 123.539C239.46 130.883 239.532 138.826 241.521 147.368C243.652 156.52 247.833 163.024 254.063 166.88C260.41 170.548 268.258 171.293 277.607 169.116Z" fill="#E1E1E1"/>
</g>
</g>
<defs>
<filter id="filter0_n_117_650" x="5" y="60" width="1363.15" height="140" filterUnits="userSpaceOnUse" color-interpolation-filters="sRGB">
<feFlood flood-opacity="0" result="BackgroundImageFix"/>
<feBlend mode="normal" in="SourceGraphic" in2="BackgroundImageFix" result="shape"/>
<feTurbulence type="fractalNoise" baseFrequency="10 10" stitchTiles="stitch" numOctaves="3" result="noise" seed="5531" />
<feColorMatrix in="noise" type="luminanceToAlpha" result="alphaNoise" />
<feComponentTransfer in="alphaNoise" result="coloredNoise1">
<feFuncA type="discrete" tableValues="0 0 1 1 1 1 1 1 1 1 1 1 1 1 1 1 1 1 1 1 1 1 1 1 1 1 1 1 1 1 1 1 1 1 1 1 1 1 1 1 1 1 1 1 1 1 1 1 0 0 0 0 0 0 0 0 0 0 0 0 0 0 0 0 0 0 0 0 0 0 0 0 0 0 0 0 0 0 0 0 0 0 0 0 0 0 0 0 0 0 0 0 0 0 0 0 0 0 0 0 "/>
</feComponentTransfer>
<feComposite operator="in" in2="shape" in="coloredNoise1" result="noise1Clipped" />
<feFlood flood-color="rgba(0, 0, 0, 0.21)" result="color1Flood" />
<feComposite operator="in" in2="noise1Clipped" in="color1Flood" result="color1" />
<feMerge result="effect1_noise_117_650">
<feMergeNode in="shape" />
<feMergeNode in="color1" />
</feMerge>
</filter>
<filter id="filter1_n_117_650" x="141" y="6.10352e-05" width="271.547" height="261.594" filterUnits="userSpaceOnUse" color-interpolation-filters="sRGB">
<feFlood flood-opacity="0" result="BackgroundImageFix"/>
<feBlend mode="normal" in="SourceGraphic" in2="BackgroundImageFix" result="shape"/>
<feTurbulence type="fractalNoise" baseFrequency="10 10" stitchTiles="stitch" numOctaves="3" result="noise" seed="5531" />
<feColorMatrix in="noise" type="luminanceToAlpha" result="alphaNoise" />
<feComponentTransfer in="alphaNoise" result="coloredNoise1">
<feFuncA type="discrete" tableValues="0 0 1 1 1 1 1 1 1 1 1 1 1 1 1 1 1 1 1 1 1 1 1 1 1 1 1 1 1 1 1 1 1 1 1 1 1 1 1 1 1 1 1 1 1 1 1 1 0 0 0 0 0 0 0 0 0 0 0 0 0 0 0 0 0 0 0 0 0 0 0 0 0 0 0 0 0 0 0 0 0 0 0 0 0 0 0 0 0 0 0 0 0 0 0 0 0 0 0 0 "/>
</feComponentTransfer>
<feComposite operator="in" in2="shape" in="coloredNoise1" result="noise1Clipped" />
<feFlood flood-color="rgba(0, 0, 0, 0.21)" result="color1Flood" />
<feComposite operator="in" in2="noise1Clipped" in="color1Flood" result="color1" />
<feMerge result="effect1_noise_117_650">
<feMergeNode in="shape" />
<feMergeNode in="color1" />
</feMerge>
</filter>
<clipPath id="clip0_117_650">
<rect width="228.668" height="215.347" fill="white" transform="translate(141 51.8579) rotate(-13.1077)"/>
</clipPath>
</defs>
</svg>
