<svg width="112" height="233" viewBox="0 0 112 233" fill="none" xmlns="http://www.w3.org/2000/svg">
<path d="M107.186 69.0757L105.288 68.4444V68.4444L107.186 69.0757ZM7.20264 136.198L5.21354 136.407L7.20264 136.198ZM71.3376 230.839C71.7594 231.86 72.9289 232.346 73.9498 231.924L90.5857 225.051C91.6066 224.629 92.0922 223.459 91.6704 222.438C91.2486 221.418 90.0791 220.932 89.0583 221.354L74.2708 227.464L68.161 212.676C67.7392 211.655 66.5697 211.17 65.5488 211.591C64.5279 212.013 64.0423 213.183 64.4641 214.203L71.3376 230.839ZM1.68604 1.07568L1.09673e-05 2.15147C0.740172 3.31149 1.5478 4.4174 2.41691 5.47254L3.96065 4.20097L5.50438 2.92941C4.73438 1.99459 4.02239 1.01912 3.37206 -0.000105739L1.68604 1.07568ZM9.48048 9.58751L8.23348 11.1512C10.2915 12.7924 12.5262 14.2757 14.8976 15.6263L15.8874 13.8883L16.8772 12.1504C14.6598 10.8876 12.6014 9.51828 10.7275 8.02387L9.48048 9.58751ZM22.8173 17.3153L22.025 19.1517C24.3985 20.1758 26.863 21.1126 29.3909 21.9797L30.0398 20.0879L30.6887 18.1961C28.2413 17.3566 25.8743 16.4561 23.6097 15.479L22.8173 17.3153ZM37.415 22.3887L36.8665 24.312C39.3508 25.0205 41.8739 25.6833 44.4129 26.3141L44.8952 24.3731L45.3774 22.4321C42.872 21.8096 40.3944 21.1587 37.9636 20.4654L37.415 22.3887ZM52.4178 26.1563L51.973 28.1062C54.4995 28.6826 57.0269 29.2427 59.5268 29.7984L59.9608 27.8461L60.3948 25.8938C57.8906 25.3371 55.3758 24.7797 52.8626 24.2064L52.4178 26.1563ZM67.5123 29.5488L67.0616 31.4973C69.6056 32.0857 72.099 32.6846 74.5219 33.3096L75.0214 31.373L75.521 29.4364C73.0552 28.8003 70.5271 28.1933 67.963 27.6002L67.5123 29.5488ZM82.4668 33.4662L81.8755 35.3767C84.3952 36.1566 86.7869 36.9863 89.0231 37.8861L89.7697 36.0306L90.5163 34.1752C88.1564 33.2256 85.6577 32.3602 83.0582 31.5556L82.4668 33.4662ZM96.7374 39.3693L95.7366 41.1009C97.9839 42.3998 99.9304 43.8173 101.545 45.3811L102.936 43.9446L104.328 42.5081C102.43 40.6699 100.205 39.0635 97.7383 37.6377L96.7374 39.3693ZM107.404 50.1852L105.58 51.0068C106.472 52.986 107.001 55.2049 107.09 57.7259L109.089 57.6553L111.088 57.5848C110.981 54.573 110.344 51.8408 109.227 49.3635L107.404 50.1852ZM108.256 65.319L106.309 64.8631C106.041 66.0068 105.702 67.1998 105.288 68.4444L107.186 69.0757L109.084 69.7069C109.533 68.356 109.906 67.046 110.203 65.775L108.256 65.319ZM107.186 69.0757L105.288 68.4444C104.858 69.7377 104.372 70.961 103.833 72.1189L105.647 72.9622L107.46 73.8055C108.064 72.506 108.607 71.141 109.084 69.7069L107.186 69.0757ZM101.226 80.0068L99.6817 78.7354C98.0061 80.77 96.0967 82.5465 93.9878 84.1087L95.1783 85.7158L96.3688 87.3229C98.7174 85.5831 100.87 83.5852 102.769 81.2782L101.226 80.0068ZM88.0194 89.9711L87.158 88.1661C84.7935 89.2945 82.28 90.2641 79.6497 91.1117L80.2632 93.0153L80.8766 94.9189C83.6441 94.027 86.3276 92.9946 88.8808 91.7761L88.0194 89.9711ZM72.2201 95.2001L71.7729 93.2507C69.1335 93.8562 66.4316 94.384 63.6947 94.8677L64.0427 96.8372L64.3908 98.8067C67.1726 98.315 69.9438 97.7742 72.6673 97.1494L72.2201 95.2001ZM55.8079 98.1822L55.5023 96.2057C52.7446 96.6321 49.9706 97.0496 47.2458 97.4871L47.5629 99.4618L47.8799 101.437C50.5898 101.001 53.334 100.588 56.1135 100.159L55.8079 98.1822ZM39.3495 100.911L38.9601 98.9494C36.1178 99.5136 33.3448 100.148 30.6894 100.897L31.2323 102.822L31.7752 104.746C34.3016 104.034 36.9672 103.423 39.7389 102.873L39.3495 100.911ZM23.3741 105.606L22.5584 103.78C19.7999 105.012 17.2435 106.481 14.9792 108.269L16.2186 109.838L17.4581 111.408C19.411 109.866 21.6679 108.558 24.1897 107.432L23.3741 105.606ZM10.6798 116.006L8.97508 114.96C7.48498 117.389 6.37667 120.148 5.69918 123.284L7.65407 123.706L9.60895 124.129C10.1968 121.408 11.1439 119.074 12.3846 117.052L10.6798 116.006ZM6.93133 131.997L4.93178 132.04C4.96162 133.439 5.05489 134.894 5.21354 136.407L7.20264 136.198L9.19173 135.99C9.04384 134.579 8.95818 133.235 8.93087 131.954L6.93133 131.997ZM7.20264 136.198L5.21354 136.407C5.38526 138.044 5.74187 139.581 6.26914 141.024L8.14767 140.338L10.0262 139.651C9.61488 138.526 9.33025 137.311 9.19173 135.99L7.20264 136.198ZM12.8572 147.281L11.4848 148.736C13.5819 150.714 16.0851 152.395 18.8298 153.883L19.7828 152.125L20.7357 150.366C18.1932 148.988 16.0018 147.498 14.2295 145.826L12.8572 147.281ZM27.4992 155.659L26.7595 157.518C29.3428 158.546 32.0486 159.517 34.7954 160.474L35.4536 158.585L36.1118 156.697C33.3814 155.745 30.7406 154.797 28.2389 153.801L27.4992 155.659ZM43.4678 161.364L42.8024 163.251C45.4535 164.186 48.0892 165.152 50.6629 166.192L51.4121 164.337L52.1613 162.483C49.5096 161.412 46.8116 160.423 44.1332 159.478L43.4678 161.364ZM59.1374 167.834L58.2232 169.613C60.7131 170.893 63.0613 172.288 65.2147 173.843L66.3855 172.222L67.5564 170.601C65.2076 168.905 62.6808 167.407 60.0516 166.055L59.1374 167.834ZM72.6807 177.869L71.1791 179.19C72.9059 181.153 74.3754 183.329 75.5313 185.768L77.3387 184.912L79.1461 184.056C77.8197 181.256 76.1377 178.77 74.1823 176.548L72.6807 177.869ZM79.8697 192.967L77.8999 193.314C78.3274 195.744 78.5144 198.402 78.4173 201.317L80.4162 201.384L82.4151 201.45C82.5206 198.283 82.3189 195.347 81.8394 192.621L79.8697 192.967ZM79.4638 209.857L77.4967 209.495C77.0372 211.995 76.4025 214.648 75.5755 217.465L77.4945 218.028L79.4135 218.591C80.2756 215.655 80.944 212.867 81.4308 210.218L79.4638 209.857ZM74.7891 226.04L72.9187 225.332C72.4282 226.628 71.9019 227.953 71.339 229.309L73.1861 230.076L75.0331 230.843C75.6116 229.45 76.1534 228.085 76.6595 226.749L74.7891 226.04Z" fill="#817C7C"/>
</svg>
