<svg width="703" height="329" viewBox="0 0 703 329" fill="none" xmlns="http://www.w3.org/2000/svg">
<path opacity="0.4" d="M216.815 143.471L216.777 146.471L216.815 143.471ZM467.773 267.487L466.3 270.101V270.101L467.773 267.487ZM700.829 318.915C702.384 318.342 703.179 316.617 702.605 315.062L693.255 289.733C692.682 288.178 690.957 287.383 689.402 287.957C687.848 288.531 687.053 290.256 687.627 291.81L695.937 314.326L673.422 322.636C671.868 323.21 671.073 324.935 671.647 326.489C672.22 328.044 673.945 328.839 675.5 328.265L700.829 318.915ZM2.79053 1.10107L-4.22001e-05 2.20231C0.734829 4.0645 1.54584 5.99583 2.43315 7.98802L5.17362 6.76744L7.91409 5.54685C7.06017 3.62963 6.28277 1.77791 5.5811 -0.000161886L2.79053 1.10107ZM10.604 17.8583L7.95544 19.2672C9.82628 22.784 11.8978 26.4241 14.1719 30.1536L16.7333 28.5917L19.2947 27.0299C17.0807 23.3989 15.0673 19.8607 13.2525 16.4493L10.604 17.8583ZM23.4519 38.9709L20.9772 40.6668C23.2709 44.0138 25.7184 47.4051 28.3208 50.8186L30.7065 48.9998L33.0923 47.1809C30.5518 43.8487 28.1637 40.5394 25.9266 37.275L23.4519 38.9709ZM38.4285 58.6262L36.1352 60.5603C38.7702 63.6848 41.5348 66.8107 44.43 69.921L46.6259 67.877L48.8218 65.833C45.9947 62.7958 43.295 59.7433 40.7218 56.6922L38.4285 58.6262ZM55.2673 76.715L53.1746 78.8645C56.1172 81.7293 59.1749 84.5665 62.3485 87.3625L64.3317 85.1115L66.3148 82.8605C63.2175 80.1317 60.2328 77.3622 57.3601 74.5654L55.2673 76.715ZM73.8058 93.0429L71.939 95.3913C75.1665 97.9569 78.4994 100.473 81.9383 102.929L83.6816 100.487L85.4249 98.0458C82.0717 95.6515 78.8211 93.1973 75.6726 90.6945L73.8058 93.0429ZM93.9115 107.396L92.2984 109.925C95.7787 112.145 99.3563 114.298 103.032 116.376L104.508 113.764L105.984 111.152C102.403 109.128 98.9168 107.03 95.5246 104.866L93.9115 107.396ZM115.431 119.555L114.098 122.243C117.792 124.075 121.575 125.828 125.449 127.493L126.634 124.737L127.819 121.981C124.047 120.359 120.362 118.652 116.764 116.867L115.431 119.555ZM138.113 129.306L137.081 132.122C140.956 133.543 144.915 134.876 148.957 136.112L149.835 133.244L150.712 130.375C146.776 129.171 142.92 127.873 139.146 126.489L138.113 129.306ZM161.757 136.539L161.036 139.451C165.031 140.44 169.101 141.335 173.247 142.13L173.811 139.183L174.376 136.237C170.335 135.463 166.369 134.591 162.478 133.627L161.757 136.539ZM185.994 141.188L185.584 144.16C189.658 144.722 193.8 145.187 198.01 145.551L198.268 142.562L198.526 139.573C194.417 139.218 190.377 138.764 186.404 138.216L185.994 141.188ZM210.598 143.318L210.488 146.316C212.569 146.393 214.665 146.445 216.777 146.471L216.815 143.471L216.853 140.471C214.788 140.446 212.74 140.395 210.708 140.32L210.598 143.318ZM216.815 143.471L216.777 146.471C218.815 146.496 220.832 146.537 222.828 146.591L222.91 143.592L222.992 140.593C220.965 140.538 218.919 140.497 216.853 140.471L216.815 143.471ZM234.901 144.102L234.727 147.097C238.768 147.332 242.722 147.628 246.591 147.982L246.864 144.994L247.137 142.007C243.201 141.647 239.181 141.346 235.075 141.107L234.901 144.102ZM258.793 146.297L258.414 149.273C262.435 149.786 266.359 150.364 270.19 151.002L270.683 148.043L271.176 145.084C267.268 144.433 263.269 143.844 259.173 143.322L258.793 146.297ZM282.503 150.26L281.889 153.197C285.853 154.026 289.713 154.922 293.473 155.881L294.214 152.974L294.956 150.067C291.111 149.087 287.166 148.17 283.117 147.324L282.503 150.26ZM305.808 156.216L304.933 159.085C308.806 160.267 312.567 161.516 316.222 162.826L317.235 160.002L318.247 157.178C314.502 155.835 310.649 154.556 306.683 153.346L305.808 156.216ZM328.455 164.345L327.302 167.115C331.027 168.665 334.636 170.281 338.137 171.953L339.43 169.246L340.723 166.539C337.131 164.823 333.429 163.166 329.608 161.576L328.455 164.345ZM350.123 174.695L348.693 177.332C352.237 179.254 355.664 181.232 358.986 183.257L360.548 180.695L362.109 178.133C358.704 176.058 355.188 174.029 351.553 172.058L350.123 174.695ZM370.665 187.206L368.981 189.689C372.308 191.944 375.526 194.242 378.649 196.569L380.442 194.164L382.235 191.759C379.045 189.381 375.754 187.031 372.348 184.722L370.665 187.206ZM389.947 201.557L388.06 203.888C391.191 206.423 394.228 208.978 397.185 211.539L399.149 209.272L401.113 207.004C398.112 204.405 395.024 201.807 391.835 199.225L389.947 201.557ZM408.143 217.273L406.122 219.491C409.116 222.218 412.035 224.934 414.9 227.622L416.953 225.434L419.006 223.247C416.129 220.547 413.186 217.81 410.163 215.055L408.143 217.273ZM425.709 233.689L423.651 235.872C426.626 238.676 429.562 241.429 432.476 244.103L434.504 241.893L436.533 239.683C433.649 237.036 430.736 234.305 427.767 231.506L425.709 233.689ZM443.476 249.889L441.521 252.164C444.653 254.855 447.793 257.432 450.968 259.861L452.791 257.478L454.614 255.095C451.548 252.749 448.497 250.247 445.431 247.613L443.476 249.889ZM462.62 264.391L461.007 266.921C462.751 268.033 464.514 269.094 466.3 270.101L467.773 267.487L469.246 264.873C467.561 263.924 465.891 262.919 464.233 261.861L462.62 264.391ZM467.773 267.487L466.3 270.101C468.108 271.119 469.902 272.092 471.683 273.019L473.069 270.359L474.455 267.698C472.733 266.801 470.997 265.86 469.246 264.873L467.773 267.487ZM483.87 275.519L482.674 278.271C486.509 279.938 490.288 281.408 494.022 282.705L495.007 279.871L495.991 277.037C492.4 275.79 488.762 274.374 485.065 272.768L483.87 275.519ZM506.472 283.362L505.71 286.264C509.717 287.316 513.678 288.19 517.61 288.917L518.155 285.967L518.701 283.017C514.906 282.315 511.089 281.473 507.234 280.461L506.472 283.362ZM529.991 287.75L529.637 290.729C533.676 291.209 537.696 291.566 541.711 291.838L541.914 288.845L542.117 285.852C538.185 285.585 534.267 285.237 530.345 284.771L529.991 287.75ZM553.877 289.437L553.774 292.436C557.761 292.572 561.764 292.662 565.792 292.738L565.849 289.739L565.906 286.739C561.888 286.663 557.921 286.574 553.98 286.439L553.877 289.437ZM577.818 289.961L577.756 292.961C581.682 293.043 585.648 293.144 589.673 293.296L589.786 290.298L589.899 287.3C585.828 287.147 581.825 287.044 577.881 286.962L577.818 289.961ZM601.751 290.911L601.552 293.905C605.426 294.163 609.362 294.49 613.374 294.911L613.687 291.927L613.999 288.943C609.904 288.514 605.891 288.181 601.951 287.918L601.751 290.911ZM625.553 293.428L625.11 296.396C628.929 296.965 632.822 297.632 636.797 298.417L637.378 295.474L637.959 292.53C633.887 291.727 629.902 291.044 625.995 290.461L625.553 293.428ZM649.039 298.062L648.32 300.975C652.052 301.897 655.859 302.928 659.748 304.083L660.602 301.207L661.456 298.331C657.477 297.149 653.58 296.094 649.758 295.15L649.039 298.062ZM672.026 304.88L671.045 307.715C674.667 308.969 678.36 310.332 682.129 311.814L683.227 309.023L684.326 306.231C680.48 304.718 676.708 303.326 673.007 302.045L672.026 304.88ZM694.272 313.619L693.066 316.366C694.872 317.158 696.695 317.978 698.535 318.826L699.791 316.101L701.046 313.376C699.173 312.513 697.316 311.679 695.477 310.872L694.272 313.619ZM216.815 143.471L216.777 146.471L216.815 143.471ZM467.773 267.487L466.3 270.101V270.101L467.773 267.487ZM700.829 318.915C702.384 318.342 703.179 316.617 702.605 315.062L693.255 289.733C692.682 288.178 690.957 287.383 689.402 287.957C687.848 288.531 687.053 290.256 687.627 291.81L695.937 314.326L673.422 322.636C671.868 323.21 671.073 324.935 671.647 326.489C672.22 328.044 673.945 328.839 675.5 328.265L700.829 318.915ZM2.79053 1.10107L-4.22001e-05 2.20231C0.734829 4.0645 1.54584 5.99583 2.43315 7.98802L5.17362 6.76744L7.91409 5.54685C7.06017 3.62963 6.28277 1.77791 5.5811 -0.000161886L2.79053 1.10107ZM10.604 17.8583L7.95544 19.2672C9.82628 22.784 11.8978 26.4241 14.1719 30.1536L16.7333 28.5917L19.2947 27.0299C17.0807 23.3989 15.0673 19.8607 13.2525 16.4493L10.604 17.8583ZM23.4519 38.9709L20.9772 40.6668C23.2709 44.0138 25.7184 47.4051 28.3208 50.8186L30.7065 48.9998L33.0923 47.1809C30.5518 43.8487 28.1637 40.5394 25.9266 37.275L23.4519 38.9709ZM38.4285 58.6262L36.1352 60.5603C38.7702 63.6848 41.5348 66.8107 44.43 69.921L46.6259 67.877L48.8218 65.833C45.9947 62.7958 43.295 59.7433 40.7218 56.6922L38.4285 58.6262ZM55.2673 76.715L53.1746 78.8645C56.1172 81.7293 59.1749 84.5665 62.3485 87.3625L64.3317 85.1115L66.3148 82.8605C63.2175 80.1317 60.2328 77.3622 57.3601 74.5654L55.2673 76.715ZM73.8058 93.0429L71.939 95.3913C75.1665 97.9569 78.4994 100.473 81.9383 102.929L83.6816 100.487L85.4249 98.0458C82.0717 95.6515 78.8211 93.1973 75.6726 90.6945L73.8058 93.0429ZM93.9115 107.396L92.2984 109.925C95.7787 112.145 99.3563 114.298 103.032 116.376L104.508 113.764L105.984 111.152C102.403 109.128 98.9168 107.03 95.5246 104.866L93.9115 107.396ZM115.431 119.555L114.098 122.243C117.792 124.075 121.575 125.828 125.449 127.493L126.634 124.737L127.819 121.981C124.047 120.359 120.362 118.652 116.764 116.867L115.431 119.555ZM138.113 129.306L137.081 132.122C140.956 133.543 144.915 134.876 148.957 136.112L149.835 133.244L150.712 130.375C146.776 129.171 142.92 127.873 139.146 126.489L138.113 129.306ZM161.757 136.539L161.036 139.451C165.031 140.44 169.101 141.335 173.247 142.13L173.811 139.183L174.376 136.237C170.335 135.463 166.369 134.591 162.478 133.627L161.757 136.539ZM185.994 141.188L185.584 144.16C189.658 144.722 193.8 145.187 198.01 145.551L198.268 142.562L198.526 139.573C194.417 139.218 190.377 138.764 186.404 138.216L185.994 141.188ZM210.598 143.318L210.488 146.316C212.569 146.393 214.665 146.445 216.777 146.471L216.815 143.471L216.853 140.471C214.788 140.446 212.74 140.395 210.708 140.32L210.598 143.318ZM216.815 143.471L216.777 146.471C218.815 146.496 220.832 146.537 222.828 146.591L222.91 143.592L222.992 140.593C220.965 140.538 218.919 140.497 216.853 140.471L216.815 143.471ZM234.901 144.102L234.727 147.097C238.768 147.332 242.722 147.628 246.591 147.982L246.864 144.994L247.137 142.007C243.201 141.647 239.181 141.346 235.075 141.107L234.901 144.102ZM258.793 146.297L258.414 149.273C262.435 149.786 266.359 150.364 270.19 151.002L270.683 148.043L271.176 145.084C267.268 144.433 263.269 143.844 259.173 143.322L258.793 146.297ZM282.503 150.26L281.889 153.197C285.853 154.026 289.713 154.922 293.473 155.881L294.214 152.974L294.956 150.067C291.111 149.087 287.166 148.17 283.117 147.324L282.503 150.26ZM305.808 156.216L304.933 159.085C308.806 160.267 312.567 161.516 316.222 162.826L317.235 160.002L318.247 157.178C314.502 155.835 310.649 154.556 306.683 153.346L305.808 156.216ZM328.455 164.345L327.302 167.115C331.027 168.665 334.636 170.281 338.137 171.953L339.43 169.246L340.723 166.539C337.131 164.823 333.429 163.166 329.608 161.576L328.455 164.345ZM350.123 174.695L348.693 177.332C352.237 179.254 355.664 181.232 358.986 183.257L360.548 180.695L362.109 178.133C358.704 176.058 355.188 174.029 351.553 172.058L350.123 174.695ZM370.665 187.206L368.981 189.689C372.308 191.944 375.526 194.242 378.649 196.569L380.442 194.164L382.235 191.759C379.045 189.381 375.754 187.031 372.348 184.722L370.665 187.206ZM389.947 201.557L388.06 203.888C391.191 206.423 394.228 208.978 397.185 211.539L399.149 209.272L401.113 207.004C398.112 204.405 395.024 201.807 391.835 199.225L389.947 201.557ZM408.143 217.273L406.122 219.491C409.116 222.218 412.035 224.934 414.9 227.622L416.953 225.434L419.006 223.247C416.129 220.547 413.186 217.81 410.163 215.055L408.143 217.273ZM425.709 233.689L423.651 235.872C426.626 238.676 429.562 241.429 432.476 244.103L434.504 241.893L436.533 239.683C433.649 237.036 430.736 234.305 427.767 231.506L425.709 233.689ZM443.476 249.889L441.521 252.164C444.653 254.855 447.793 257.432 450.968 259.861L452.791 257.478L454.614 255.095C451.548 252.749 448.497 250.247 445.431 247.613L443.476 249.889ZM462.62 264.391L461.007 266.921C462.751 268.033 464.514 269.094 466.3 270.101L467.773 267.487L469.246 264.873C467.561 263.924 465.891 262.919 464.233 261.861L462.62 264.391ZM467.773 267.487L466.3 270.101C468.108 271.119 469.902 272.092 471.683 273.019L473.069 270.359L474.455 267.698C472.733 266.801 470.997 265.86 469.246 264.873L467.773 267.487ZM483.87 275.519L482.674 278.271C486.509 279.938 490.288 281.408 494.022 282.705L495.007 279.871L495.991 277.037C492.4 275.79 488.762 274.374 485.065 272.768L483.87 275.519ZM506.472 283.362L505.71 286.264C509.717 287.316 513.678 288.19 517.61 288.917L518.155 285.967L518.701 283.017C514.906 282.315 511.089 281.473 507.234 280.461L506.472 283.362ZM529.991 287.75L529.637 290.729C533.676 291.209 537.696 291.566 541.711 291.838L541.914 288.845L542.117 285.852C538.185 285.585 534.267 285.237 530.345 284.771L529.991 287.75ZM553.877 289.437L553.774 292.436C557.761 292.572 561.764 292.662 565.792 292.738L565.849 289.739L565.906 286.739C561.888 286.663 557.921 286.574 553.98 286.439L553.877 289.437ZM577.818 289.961L577.756 292.961C581.682 293.043 585.648 293.144 589.673 293.296L589.786 290.298L589.899 287.3C585.828 287.147 581.825 287.044 577.881 286.962L577.818 289.961ZM601.751 290.911L601.552 293.905C605.426 294.163 609.362 294.49 613.374 294.911L613.687 291.927L613.999 288.943C609.904 288.514 605.891 288.181 601.951 287.918L601.751 290.911ZM625.553 293.428L625.11 296.396C628.929 296.965 632.822 297.632 636.797 298.417L637.378 295.474L637.959 292.53C633.887 291.727 629.902 291.044 625.995 290.461L625.553 293.428ZM649.039 298.062L648.32 300.975C652.052 301.897 655.859 302.928 659.748 304.083L660.602 301.207L661.456 298.331C657.477 297.149 653.58 296.094 649.758 295.15L649.039 298.062ZM672.026 304.88L671.045 307.715C674.667 308.969 678.36 310.332 682.129 311.814L683.227 309.023L684.326 306.231C680.48 304.718 676.708 303.326 673.007 302.045L672.026 304.88ZM694.272 313.619L693.066 316.366C694.872 317.158 696.695 317.978 698.535 318.826L699.791 316.101L701.046 313.376C699.173 312.513 697.316 311.679 695.477 310.872L694.272 313.619Z" fill="#E1E1E1"/>
</svg>
