<svg preserveAspectRatio="none" width="100%" height="100%" overflow="visible" style="display: block;" viewBox="0 0 228.668 215.347" fill="none" xmlns="http://www.w3.org/2000/svg">
<g id="Frame" filter="url(#filter0_n_0_93)">
<path id="Vector" d="M129.824 0C149.967 0 167.277 3.60217 181.754 10.8065C196.231 17.8543 207.247 27.8778 214.8 40.877C222.511 53.8761 226.366 68.9113 226.366 85.9825C226.366 100.391 223.927 113.86 219.049 126.389C214.328 138.919 207.719 149.021 199.221 156.695C190.724 164.212 181.203 167.971 170.66 167.971C163.107 167.971 156.812 166.562 151.776 163.742C146.898 160.923 143.594 156.93 141.863 151.761C131.319 162.568 117.235 167.971 99.6107 167.971C90.0115 167.971 81.3566 165.935 73.6458 161.863C66.0924 157.791 60.1126 151.996 55.7064 144.479C51.4577 136.804 49.3332 127.956 49.3332 117.932C49.3332 105.246 52.0871 93.6566 57.5948 83.1633C63.2599 72.5134 71.0493 64.1345 80.9632 58.0264C90.877 51.7618 102.05 48.6295 114.481 48.6295C133.208 48.6295 146.426 55.129 154.137 68.1282L157.678 50.039H184.115L167.827 130.383C167.355 132.419 167.119 134.22 167.119 135.786C167.119 142.521 170.66 145.888 177.741 145.888C183.564 145.888 188.678 142.991 193.084 137.196C197.49 131.245 200.874 123.727 203.234 114.643C205.595 105.403 206.775 96.2408 206.775 87.1571C206.775 66.0139 199.929 49.4125 186.239 37.3531C172.706 25.2936 152.957 19.2638 126.992 19.2638C106.22 19.2638 87.8085 23.884 71.7575 33.1244C55.8638 42.2082 43.5108 54.6592 34.6985 70.4774C26.0436 86.2957 21.7161 103.915 21.7161 123.335C21.7161 137.588 24.6273 150.117 30.4497 160.923C36.4295 171.73 45.1631 180.109 56.6506 186.06C68.1381 192.012 81.986 194.987 98.1944 194.987C115.19 194.987 130.296 191.933 143.515 185.825L147.764 204.384C140.682 207.517 132.578 209.944 123.451 211.667C114.481 213.546 105.59 214.486 96.7781 214.486C76.9504 214.486 59.7192 210.727 45.0845 203.21C30.4497 195.692 19.277 185.199 11.5662 171.73C3.85539 158.261 0 142.678 0 124.98C0 101.487 5.42902 80.266 16.2871 61.3154C27.1451 42.2082 42.4093 27.2513 62.0796 16.4447C81.9074 5.48157 104.489 0 129.824 0ZM106.456 145.183C114.324 145.183 121.405 143.226 127.7 139.31C133.994 135.395 138.873 130.07 142.335 123.335C145.797 116.444 147.528 108.848 147.528 100.548C147.528 91.3074 144.774 84.1814 139.266 79.1696C133.758 74.0013 126.126 71.4171 116.37 71.4171C108.659 71.4171 101.735 73.2965 95.5979 77.0553C89.6181 80.6575 84.8973 85.8258 81.4353 92.5603C77.9733 99.2948 76.2423 107.047 76.2423 115.818C76.2423 125.215 78.8388 132.497 84.0318 137.666C89.3821 142.678 96.8568 145.183 106.456 145.183Z" fill="var(--fill-0, #E1E1E1)"/>
</g>
<defs>
<filter id="filter0_n_0_93" x="0" y="0" width="228.668" height="215.347" filterUnits="userSpaceOnUse" color-interpolation-filters="sRGB">
<feFlood flood-opacity="0" result="BackgroundImageFix"/>
<feBlend mode="normal" in="SourceGraphic" in2="BackgroundImageFix" result="shape"/>
<feTurbulence type="fractalNoise" baseFrequency="10 10" stitchTiles="stitch" numOctaves="3" result="noise" seed="5531" />
<feColorMatrix in="noise" type="luminanceToAlpha" result="alphaNoise" />
<feComponentTransfer in="alphaNoise" result="coloredNoise1">
<feFuncA type="discrete" tableValues="0 0 1 1 1 1 1 1 1 1 1 1 1 1 1 1 1 1 1 1 1 1 1 1 1 1 1 1 1 1 1 1 1 1 1 1 1 1 1 1 1 1 1 1 1 1 1 1 0 0 0 0 0 0 0 0 0 0 0 0 0 0 0 0 0 0 0 0 0 0 0 0 0 0 0 0 0 0 0 0 0 0 0 0 0 0 0 0 0 0 0 0 0 0 0 0 0 0 0 0 "/>
</feComponentTransfer>
<feComposite operator="in" in2="shape" in="coloredNoise1" result="noise1Clipped" />
<feFlood flood-color="rgba(0, 0, 0, 0.21)" result="color1Flood" />
<feComposite operator="in" in2="noise1Clipped" in="color1Flood" result="color1" />
<feMerge result="effect1_noise_0_93">
<feMergeNode in="shape" />
<feMergeNode in="color1" />
</feMerge>
</filter>
</defs>
</svg>
