<svg width="147" height="186" viewBox="0 0 147 186" fill="none" xmlns="http://www.w3.org/2000/svg">
<path opacity="0.2" d="M93 34.875L49.6388 51.1355C48.6845 51.4935 47.8412 52.0962 47.1934 52.883C46.5455 53.6698 46.116 54.6131 45.9478 55.6184L29.0625 156.938L130.382 140.052C131.387 139.884 132.33 139.454 133.117 138.807C133.904 138.159 134.506 137.315 134.865 136.361L151.125 93L93 34.875ZM90.0938 110.438C87.2197 110.438 84.4103 109.585 82.0206 107.989C79.631 106.392 77.7685 104.122 76.6686 101.467C75.5688 98.8119 75.281 95.8901 75.8417 93.0713C76.4024 90.2526 77.7864 87.6633 79.8186 85.6311C81.8508 83.5989 84.4401 82.2149 87.2588 81.6542C90.0776 81.0935 92.9994 81.3813 95.6546 82.4811C98.3099 83.581 100.579 85.4435 102.176 87.8331C103.773 90.2228 104.625 93.0322 104.625 95.9062C104.625 99.7602 103.094 103.456 100.369 106.181C97.6438 108.907 93.9477 110.438 90.0938 110.438Z" fill="#817C7C" fill-opacity="0.8"/>
<path d="M180.188 67.338C180.193 65.8108 179.894 64.2979 179.309 62.8872C178.724 61.4765 177.864 60.1961 176.78 59.1205L126.88 9.21295C125.8 8.13319 124.519 7.27666 123.108 6.69228C121.698 6.10791 120.186 5.80713 118.659 5.80713C117.132 5.80713 115.62 6.10791 114.209 6.69228C112.799 7.27666 111.517 8.13319 110.438 9.21295L89.7816 29.8691L47.6409 45.6864C45.7257 46.4006 44.0318 47.6054 42.7286 49.1802C41.4254 50.755 40.5588 52.6444 40.2155 54.6594L23.3302 155.979C23.1908 156.811 23.2346 157.665 23.4585 158.479C23.6825 159.293 24.0811 160.049 24.6267 160.693C25.1723 161.338 25.8518 161.856 26.6179 162.211C27.384 162.566 28.2183 162.75 29.0627 162.75C29.384 162.749 29.7047 162.722 30.0218 162.67L131.334 145.785C133.346 145.449 135.235 144.589 136.81 143.292C138.385 141.995 139.591 140.307 140.307 138.396L156.124 96.2551L176.78 75.5626C177.865 74.486 178.725 73.2044 179.31 71.7924C179.895 70.3805 180.193 68.8663 180.188 67.338ZM129.423 134.32L46.0062 148.219L80.4234 113.802C84.7221 116.125 89.7134 116.823 94.4847 115.769C99.256 114.715 103.488 111.979 106.408 108.061C109.328 104.143 110.74 99.3047 110.386 94.4312C110.032 89.5577 107.936 84.9744 104.481 81.5192C101.026 78.064 96.4427 75.9679 91.5692 75.6141C86.6957 75.2602 81.8576 76.6723 77.9396 79.5921C74.0216 82.5119 71.2854 86.7444 70.2312 91.5157C69.1771 96.287 69.8755 101.278 72.1987 105.577L37.7815 140.009L51.6806 56.5703L91.5471 41.6249L144.368 94.4533L129.423 134.32ZM81.3752 95.9064C81.3752 94.182 81.8866 92.4963 82.8446 91.0625C83.8026 89.6287 85.1643 88.5112 86.7575 87.8513C88.3506 87.1914 90.1037 87.0188 91.7949 87.3552C93.4862 87.6916 95.0397 88.522 96.2591 89.7413C97.4784 90.9606 98.3088 92.5142 98.6452 94.2055C98.9816 95.8967 98.809 97.6498 98.1491 99.2429C97.4892 100.836 96.3717 102.198 94.9379 103.156C93.5041 104.114 91.8184 104.625 90.094 104.625C87.7816 104.625 85.564 103.707 83.9289 102.071C82.2938 100.436 81.3752 98.2188 81.3752 95.9064ZM151.125 84.7755L101.218 34.8751L118.655 17.4376L168.563 67.338L151.125 84.7755Z" fill="#817C7C" fill-opacity="0.8"/>
</svg>
