<svg width="206" height="41" viewBox="0 0 206 41" fill="none" xmlns="http://www.w3.org/2000/svg">
<g filter="url(#filter0_n_114_443)">
<g clip-path="url(#clip0_114_443)">
<path d="M0 30.753C0.442031 30.4762 0.797576 30.081 1.06664 29.5671C1.3357 29.0532 1.47023 28.4998 1.47023 27.9068V12.8165C1.47023 12.2433 1.3357 11.7096 1.06664 11.2155C0.816795 10.7214 0.461249 10.336 0 10.0593H16.8932C18.4884 10.0593 19.9298 10.2767 21.2174 10.7115C22.5051 11.1266 23.5236 11.8282 24.2732 12.8165C25.0227 13.8047 25.3975 15.129 25.3975 16.7892C25.3975 18.2913 25.0419 19.6155 24.3308 20.7619C23.6197 21.8885 22.63 22.7779 21.3615 23.4301C20.1123 24.0626 18.6613 24.3788 17.0085 24.3788H9.59973V28.0847C9.59973 28.6184 9.72465 29.1323 9.97449 29.6264C10.2436 30.1007 10.6087 30.4762 11.07 30.753H0ZM9.59973 20.1393H13.8374C14.6831 20.1393 15.3461 19.991 15.8266 19.6946C16.307 19.3981 16.6434 19.0226 16.8356 18.568C17.0277 18.0936 17.1238 17.6193 17.1238 17.1449C17.1238 16.0776 16.7875 15.3563 16.1149 14.9807C15.4614 14.5854 14.6542 14.3878 13.6933 14.3878H9.59973V20.1393ZM52.9552 30.753C53.9162 30.16 54.3966 29.2607 54.3966 28.0551V12.7572C54.3966 11.4725 53.9066 10.5534 52.9264 10H69.9637C70.9631 10 71.9337 10.1087 72.8754 10.3261C73.8171 10.5238 74.6531 10.8499 75.3834 11.3045C76.1329 11.7393 76.7287 12.3224 77.1707 13.0536C77.6128 13.785 77.8338 14.6744 77.8338 15.7219C77.8338 16.9275 77.5167 17.9652 76.8825 18.8348C76.2675 19.7045 75.4026 20.416 74.2879 20.9694C75.7678 21.4042 76.844 22.1553 77.5167 23.2226C77.8818 23.776 78.1605 24.4875 78.3527 25.3572C78.5449 26.207 78.641 27.225 78.641 28.4108C78.641 29.4781 79.1406 30.2588 80.14 30.753H69.5313C70.204 30.3972 70.5403 29.7647 70.5403 28.8555C70.5403 27.2744 70.2232 26.0984 69.589 25.3275C68.9548 24.5567 67.8881 24.1713 66.3891 24.1713H62.5549V28.0551C62.5549 29.2607 63.0354 30.16 63.9963 30.753H52.9552ZM62.5549 19.487H67.4845C68.3109 19.487 69.022 19.2696 69.6178 18.8348C70.2328 18.4 70.5403 17.728 70.5403 16.8188C70.5403 16.0282 70.2808 15.4254 69.7619 15.0103C69.243 14.5953 68.532 14.3878 67.6287 14.3878H62.5549V19.487ZM81.5862 30.753C82.5472 30.16 83.0276 29.2607 83.0276 28.0551V12.7572C83.0276 11.4725 82.5375 10.5534 81.5574 10H98.5947C99.5941 10 100.565 10.1087 101.506 10.3261C102.448 10.5238 103.284 10.8499 104.014 11.3045C104.764 11.7393 105.36 12.3224 105.802 13.0536C106.244 13.785 106.465 14.6744 106.465 15.7219C106.465 16.9275 106.148 17.9652 105.513 18.8348C104.898 19.7045 104.034 20.416 102.919 20.9694C104.399 21.4042 105.475 22.1553 106.148 23.2226C106.513 23.776 106.791 24.4875 106.984 25.3572C107.176 26.207 107.272 27.225 107.272 28.4108C107.272 29.4781 107.772 30.2588 108.771 30.753H98.1623C98.835 30.3972 99.1713 29.7647 99.1713 28.8555C99.1713 27.2744 98.8542 26.0984 98.22 25.3275C97.5858 24.5567 96.5191 24.1713 95.0201 24.1713H91.1859V28.0551C91.1859 29.2607 91.6664 30.16 92.6273 30.753H81.5862ZM91.1859 19.487H96.1155C96.9419 19.487 97.653 19.2696 98.2488 18.8348C98.8638 18.4 99.1713 17.728 99.1713 16.8188C99.1713 16.0282 98.9118 15.4254 98.3929 15.0103C97.874 14.5953 97.1629 14.3878 96.2597 14.3878H91.1859V19.487ZM110.132 30.753C111.093 30.1205 111.573 29.2212 111.573 28.0551V12.8165C111.573 12.2631 111.448 11.7294 111.199 11.2155C110.949 10.7016 110.593 10.2965 110.132 10L132.832 10V13.1129V16.2259C132.378 14.9807 130.984 14.9807 129.793 14.9807H119.732V17.975H130.225V22.3925H119.732V25.8019H129.043C129.927 25.8019 131.005 25.813 131.678 25.5956C132.378 25.3693 132.551 24.7247 132.877 23.9341V30.753H110.132ZM134.014 30.753C134.975 30.1205 135.456 29.2212 135.456 28.0551V20.4358V12.8165C135.456 12.2433 135.331 11.6998 135.081 11.1859C134.831 10.672 134.476 10.2767 134.014 10H145.056C144.594 10.2767 144.239 10.672 143.989 11.1859C143.739 11.6998 143.614 12.2334 143.614 12.7868V27.9068C143.614 28.4998 143.739 29.0532 143.989 29.5671C144.239 30.081 144.594 30.4762 145.056 30.753H134.014ZM145.013 30.753C145.974 30.16 146.455 29.2607 146.455 28.0551V12.7572C146.455 11.4725 145.965 10.5534 144.984 10H162.022C163.021 10 163.992 10.1087 164.933 10.3261C165.875 10.5238 166.711 10.8499 167.441 11.3045C168.191 11.7393 168.787 12.3224 169.229 13.0536C169.671 13.785 169.892 14.6744 169.892 15.7219C169.892 16.9275 169.575 17.9652 168.94 18.8348C168.325 19.7045 167.461 20.416 166.346 20.9694C167.826 21.4042 168.902 22.1553 169.575 23.2226C169.94 23.776 170.218 24.4875 170.411 25.3572C170.603 26.207 170.699 27.225 170.699 28.4108C170.699 29.4781 171.199 30.2588 172.198 30.753H161.589C162.262 30.3972 162.598 29.7647 162.598 28.8555C162.598 27.2744 162.281 26.0984 161.647 25.3275C161.013 24.5567 159.946 24.1713 158.447 24.1713H154.613V28.0551C154.613 29.2607 155.093 30.16 156.054 30.753H145.013ZM154.613 19.487H159.543C160.369 19.487 161.08 19.2696 161.676 18.8348C162.291 18.4 162.598 17.728 162.598 16.8188C162.598 16.0282 162.339 15.4254 161.82 15.0103C161.301 14.5953 160.59 14.3878 159.687 14.3878H154.613V19.487ZM166.052 30.753C166.667 30.2391 167.292 29.5177 167.926 28.5887C168.579 27.6598 169.242 26.5332 169.915 25.209L176.286 13.0536C176.67 12.2235 176.862 11.68 176.862 11.4231C176.862 10.7906 176.68 10.3162 176.315 10H185.511L193.439 25.209C194.111 26.5332 194.765 27.6598 195.399 28.5887C196.052 29.5177 196.686 30.2391 197.301 30.753H186.952C187.317 30.496 187.5 30.0019 187.5 29.2706C187.5 28.6579 187.298 27.9859 186.895 27.2546L186.376 26.2763L176.43 27.2546C176.046 28.0847 175.853 28.7567 175.853 29.2706C175.853 30.0019 176.036 30.496 176.401 30.753H166.052ZM178.592 23.1929L184.473 22.6296L181.648 17.2635L178.592 23.1929Z" fill="#E1E1E1"/>
</g>
</g>
<g filter="url(#filter1_n_114_443)">
<g clip-path="url(#clip1_114_443)">
<path d="M39.3379 3.5133C42.4126 2.79736 45.1829 2.73197 47.6489 3.31711C50.1094 3.87835 52.1471 5.01689 53.7622 6.7327C55.4012 8.44292 56.5241 10.601 57.1309 13.2068C57.6431 15.4063 57.7495 17.549 57.4502 19.6349C57.1749 21.7153 56.525 23.4922 55.5007 24.9657C54.4707 26.4153 53.1511 27.3275 51.5417 27.7022C50.3887 27.9707 49.3777 27.9793 48.5088 27.7279C47.664 27.471 47.0176 26.9788 46.5697 26.2514C45.3444 28.2757 43.3865 29.6011 40.6962 30.2276C39.2309 30.5688 37.8374 30.5656 36.5156 30.2181C35.2178 29.865 34.0991 29.193 33.1593 28.202C32.2379 27.1816 31.5991 25.9064 31.2429 24.3763C30.792 22.4398 30.8004 20.5728 31.2682 18.7753C31.7544 16.9483 32.6456 15.3924 33.9418 14.1076C35.2325 12.7989 36.8266 11.9237 38.7243 11.4818C41.5828 10.8162 43.8316 11.3385 45.4707 13.0487L45.3682 10.1616L49.4037 9.22195L49.7733 22.0652C49.7736 22.3928 49.8016 22.6761 49.8572 22.9152C50.0966 23.9432 50.7568 24.3313 51.8377 24.0796C52.7265 23.8727 53.4042 23.2486 53.8708 22.2074C54.3318 21.1423 54.5811 19.8746 54.6185 18.404C54.6504 16.9096 54.5049 15.4691 54.1821 14.0825C53.4305 10.855 51.7956 8.5642 49.2771 7.20997C46.7826 5.85015 43.5537 5.63166 39.5902 6.55455C36.4194 7.29287 33.7732 8.65254 31.6515 10.6336C29.5482 12.5851 28.1051 14.9248 27.3222 17.6526C26.5633 20.3749 26.529 23.2183 27.2192 26.1827C27.7258 28.3583 28.6155 30.1674 29.8884 31.61C31.1853 33.0471 32.8163 34.0157 34.7814 34.5158C36.7465 35.016 38.9661 34.978 41.4402 34.4019C44.0345 33.7978 46.232 32.7947 48.0326 31.3925L49.3409 34.0744C48.3713 34.8043 47.2205 35.4629 45.8885 36.0503C44.5861 36.656 43.2623 37.1154 41.9171 37.4287C38.8905 38.1334 36.1266 38.1721 33.6254 37.5447C31.1242 36.9174 29.0458 35.7127 27.39 33.9308C25.7342 32.1488 24.5918 29.9071 23.9628 27.2056C23.1278 23.6196 23.2022 20.1872 24.1861 16.9085C25.1644 13.6059 26.9628 10.7802 29.5813 8.43145C32.2183 6.05321 35.4705 4.41382 39.3379 3.5133ZM40.9311 26.5058C42.1322 26.2261 43.1435 25.6756 43.9652 24.8542C44.7869 24.0328 45.3423 23.0465 45.6314 21.8955C45.9149 20.7205 45.9091 19.4995 45.6141 18.2324C45.2857 16.8219 44.612 15.832 43.5931 15.2628C42.5687 14.6696 41.3118 14.5464 39.8225 14.8932C38.6455 15.1672 37.6554 15.7002 36.8521 16.4921C36.0674 17.2546 35.5304 18.2113 35.2413 19.3623C34.9523 20.5134 34.9636 21.7583 35.2753 23.0971C35.6093 24.5315 36.2645 25.5509 37.2409 26.1553C38.2358 26.7301 39.4658 26.847 40.9311 26.5058Z" fill="#E1E1E1"/>
</g>
</g>
<defs>
<filter id="filter0_n_114_443" x="0" y="10" width="206" height="21" filterUnits="userSpaceOnUse" color-interpolation-filters="sRGB">
<feFlood flood-opacity="0" result="BackgroundImageFix"/>
<feBlend mode="normal" in="SourceGraphic" in2="BackgroundImageFix" result="shape"/>
<feTurbulence type="fractalNoise" baseFrequency="10 10" stitchTiles="stitch" numOctaves="3" result="noise" seed="5531" />
<feColorMatrix in="noise" type="luminanceToAlpha" result="alphaNoise" />
<feComponentTransfer in="alphaNoise" result="coloredNoise1">
<feFuncA type="discrete" tableValues="0 0 1 1 1 1 1 1 1 1 1 1 1 1 1 1 1 1 1 1 1 1 1 1 1 1 1 1 1 1 1 1 1 1 1 1 1 1 1 1 1 1 1 1 1 1 1 1 0 0 0 0 0 0 0 0 0 0 0 0 0 0 0 0 0 0 0 0 0 0 0 0 0 0 0 0 0 0 0 0 0 0 0 0 0 0 0 0 0 0 0 0 0 0 0 0 0 0 0 0 "/>
</feComponentTransfer>
<feComposite operator="in" in2="shape" in="coloredNoise1" result="noise1Clipped" />
<feFlood flood-color="rgba(0, 0, 0, 0.21)" result="color1Flood" />
<feComposite operator="in" in2="noise1Clipped" in="color1Flood" result="color1" />
<feMerge result="effect1_noise_114_443">
<feMergeNode in="shape" />
<feMergeNode in="color1" />
</feMerge>
</filter>
<filter id="filter1_n_114_443" x="19.5205" y="2.67029e-05" width="42.5601" height="41" filterUnits="userSpaceOnUse" color-interpolation-filters="sRGB">
<feFlood flood-opacity="0" result="BackgroundImageFix"/>
<feBlend mode="normal" in="SourceGraphic" in2="BackgroundImageFix" result="shape"/>
<feTurbulence type="fractalNoise" baseFrequency="10 10" stitchTiles="stitch" numOctaves="3" result="noise" seed="5531" />
<feColorMatrix in="noise" type="luminanceToAlpha" result="alphaNoise" />
<feComponentTransfer in="alphaNoise" result="coloredNoise1">
<feFuncA type="discrete" tableValues="0 0 1 1 1 1 1 1 1 1 1 1 1 1 1 1 1 1 1 1 1 1 1 1 1 1 1 1 1 1 1 1 1 1 1 1 1 1 1 1 1 1 1 1 1 1 1 1 0 0 0 0 0 0 0 0 0 0 0 0 0 0 0 0 0 0 0 0 0 0 0 0 0 0 0 0 0 0 0 0 0 0 0 0 0 0 0 0 0 0 0 0 0 0 0 0 0 0 0 0 "/>
</feComponentTransfer>
<feComposite operator="in" in2="shape" in="coloredNoise1" result="noise1Clipped" />
<feFlood flood-color="rgba(0, 0, 0, 0.21)" result="color1Flood" />
<feComposite operator="in" in2="noise1Clipped" in="color1Flood" result="color1" />
<feMerge result="effect1_noise_114_443">
<feMergeNode in="shape" />
<feMergeNode in="color1" />
</feMerge>
</filter>
<clipPath id="clip0_114_443">
<rect width="206" height="21" fill="white" transform="translate(0 10)"/>
</clipPath>
<clipPath id="clip1_114_443">
<rect width="35.8394" height="33.7516" fill="white" transform="translate(19.5205 8.12776) rotate(-13.1077)"/>
</clipPath>
</defs>
</svg>
