<svg width="90" height="2023" viewBox="0 0 90 2023" fill="none" xmlns="http://www.w3.org/2000/svg">
<path d="M8.49998 1969.38C-2.83335 1962.84 -2.83334 1946.48 8.49999 1939.94L59.5 1910.49C70.8333 1903.95 85 1912.13 85 1925.22L85 1984.1C85 1997.19 70.8333 2005.37 59.5 1998.83L8.49998 1969.38Z" fill="#0A0A0A"/>
<path d="M8.49998 1942.38C-2.83335 1935.84 -2.83334 1919.48 8.49999 1912.94L59.5 1883.49C70.8333 1876.95 85 1885.13 85 1898.22L85 1957.1C85 1970.19 70.8333 1978.37 59.5 1971.83L8.49998 1942.38Z" fill="#0A0A0A"/>
<path d="M8.49998 1915.38C-2.83335 1908.84 -2.83334 1892.48 8.49999 1885.94L59.5 1856.49C70.8333 1849.95 85 1858.13 85 1871.22L85 1930.1C85 1943.19 70.8333 1951.37 59.5 1944.83L8.49998 1915.38Z" fill="#0A0A0A"/>
<path d="M8.49998 1888.38C-2.83335 1881.84 -2.83334 1865.48 8.49999 1858.94L59.5 1829.49C70.8333 1822.95 85 1831.13 85 1844.22L85 1903.1C85 1916.19 70.8333 1924.37 59.5 1917.83L8.49998 1888.38Z" fill="#0A0A0A"/>
<path d="M8.49998 1861.38C-2.83335 1854.84 -2.83334 1838.48 8.49999 1831.94L59.5 1802.49C70.8333 1795.95 85 1804.13 85 1817.22L85 1876.1C85 1889.19 70.8333 1897.37 59.5 1890.83L8.49998 1861.38Z" fill="#0A0A0A"/>
<path d="M8.49998 1834.38C-2.83335 1827.84 -2.83334 1811.48 8.49999 1804.94L59.5 1775.49C70.8333 1768.95 85 1777.13 85 1790.22L85 1849.1C85 1862.19 70.8333 1870.37 59.5 1863.83L8.49998 1834.38Z" fill="#0A0A0A"/>
<path d="M8.49998 1807.38C-2.83335 1800.84 -2.83334 1784.48 8.49999 1777.94L59.5 1748.49C70.8333 1741.95 85 1750.13 85 1763.22L85 1822.1C85 1835.19 70.8333 1843.37 59.5 1836.83L8.49998 1807.38Z" fill="#0A0A0A"/>
<path d="M8.49998 1780.38C-2.83335 1773.84 -2.83334 1757.48 8.49999 1750.94L59.5 1721.49C70.8333 1714.95 85 1723.13 85 1736.22L85 1795.1C85 1808.19 70.8333 1816.37 59.5 1809.83L8.49998 1780.38Z" fill="#0A0A0A"/>
<path d="M8.49998 1753.38C-2.83335 1746.84 -2.83334 1730.48 8.49999 1723.94L59.5 1694.49C70.8333 1687.95 85 1696.13 85 1709.22L85 1768.1C85 1781.19 70.8333 1789.37 59.5 1782.83L8.49998 1753.38Z" fill="#0A0A0A"/>
<path d="M8.49998 1726.38C-2.83335 1719.84 -2.83334 1703.48 8.49999 1696.94L59.5 1667.49C70.8333 1660.95 85 1669.13 85 1682.22L85 1741.1C85 1754.19 70.8333 1762.37 59.5 1755.83L8.49998 1726.38Z" fill="#0A0A0A"/>
<path d="M8.49998 1699.38C-2.83335 1692.84 -2.83334 1676.48 8.49999 1669.94L59.5 1640.49C70.8333 1633.95 85 1642.13 85 1655.22L85 1714.1C85 1727.19 70.8333 1735.37 59.5 1728.83L8.49998 1699.38Z" fill="#0A0A0A"/>
<path d="M8.49998 1672.38C-2.83335 1665.84 -2.83334 1649.48 8.49999 1642.94L59.5 1613.49C70.8333 1606.95 85 1615.13 85 1628.22L85 1687.1C85 1700.19 70.8333 1708.37 59.5 1701.83L8.49998 1672.38Z" fill="#0A0A0A"/>
<path d="M8.49998 1645.38C-2.83335 1638.84 -2.83334 1622.48 8.49999 1615.94L59.5 1586.49C70.8333 1579.95 85 1588.13 85 1601.22L85 1660.1C85 1673.19 70.8333 1681.37 59.5 1674.83L8.49998 1645.38Z" fill="#0A0A0A"/>
<path d="M8.49998 1618.38C-2.83335 1611.84 -2.83334 1595.48 8.49999 1588.94L59.5 1559.49C70.8333 1552.95 85 1561.13 85 1574.22L85 1633.1C85 1646.19 70.8333 1654.37 59.5 1647.83L8.49998 1618.38Z" fill="#0A0A0A"/>
<path d="M8.49998 1591.38C-2.83335 1584.84 -2.83334 1568.48 8.49999 1561.94L59.5 1532.49C70.8333 1525.95 85 1534.13 85 1547.22L85 1606.1C85 1619.19 70.8333 1627.37 59.5 1620.83L8.49998 1591.38Z" fill="#0A0A0A"/>
<path d="M8.49998 1564.38C-2.83335 1557.84 -2.83334 1541.48 8.49999 1534.94L59.5 1505.49C70.8333 1498.95 85 1507.13 85 1520.22L85 1579.1C85 1592.19 70.8333 1600.37 59.5 1593.83L8.49998 1564.38Z" fill="#0A0A0A"/>
<path d="M8.49998 1537.38C-2.83335 1530.84 -2.83334 1514.48 8.49999 1507.94L59.5 1478.49C70.8333 1471.95 85 1480.13 85 1493.22L85 1552.1C85 1565.19 70.8333 1573.37 59.5 1566.83L8.49998 1537.38Z" fill="#0A0A0A"/>
<path d="M8.49998 1510.38C-2.83335 1503.84 -2.83334 1487.48 8.49999 1480.94L59.5 1451.49C70.8333 1444.95 85 1453.13 85 1466.22L85 1525.1C85 1538.19 70.8333 1546.37 59.5 1539.83L8.49998 1510.38Z" fill="#0A0A0A"/>
<path d="M8.49998 1483.38C-2.83335 1476.84 -2.83334 1460.48 8.49999 1453.94L59.5 1424.49C70.8333 1417.95 85 1426.13 85 1439.22L85 1498.1C85 1511.19 70.8333 1519.37 59.5 1512.83L8.49998 1483.38Z" fill="#0A0A0A"/>
<path d="M8.49998 1456.38C-2.83335 1449.84 -2.83334 1433.48 8.49999 1426.94L59.5 1397.49C70.8333 1390.95 85 1399.13 85 1412.22L85 1471.1C85 1484.19 70.8333 1492.37 59.5 1485.83L8.49998 1456.38Z" fill="#0A0A0A"/>
<path d="M8.49998 1429.38C-2.83335 1422.84 -2.83334 1406.48 8.49999 1399.94L59.5 1370.49C70.8333 1363.95 85 1372.13 85 1385.22L85 1444.1C85 1457.19 70.8333 1465.37 59.5 1458.83L8.49998 1429.38Z" fill="#0A0A0A"/>
<path d="M8.49998 1402.38C-2.83335 1395.84 -2.83334 1379.48 8.49999 1372.94L59.5 1343.49C70.8333 1336.95 85 1345.13 85 1358.22L85 1417.1C85 1430.19 70.8333 1438.37 59.5 1431.83L8.49998 1402.38Z" fill="#0A0A0A"/>
<path d="M8.49998 1375.38C-2.83335 1368.84 -2.83334 1352.48 8.49999 1345.94L59.5 1316.49C70.8333 1309.95 85 1318.13 85 1331.22L85 1390.1C85 1403.19 70.8333 1411.37 59.5 1404.83L8.49998 1375.38Z" fill="#0A0A0A"/>
<path d="M8.49998 1348.38C-2.83335 1341.84 -2.83334 1325.48 8.49999 1318.94L59.5 1289.49C70.8333 1282.95 85 1291.13 85 1304.22L85 1363.1C85 1376.19 70.8333 1384.37 59.5 1377.83L8.49998 1348.38Z" fill="#0A0A0A"/>
<path d="M8.49998 1321.38C-2.83335 1314.84 -2.83334 1298.48 8.49999 1291.94L59.5 1262.49C70.8333 1255.95 85 1264.13 85 1277.22L85 1336.1C85 1349.19 70.8333 1357.37 59.5 1350.83L8.49998 1321.38Z" fill="#0A0A0A"/>
<path d="M8.49998 1294.38C-2.83335 1287.84 -2.83334 1271.48 8.49999 1264.94L59.5 1235.49C70.8333 1228.95 85 1237.13 85 1250.22L85 1309.1C85 1322.19 70.8333 1330.37 59.5 1323.83L8.49998 1294.38Z" fill="#0A0A0A"/>
<path d="M8.49998 1267.38C-2.83335 1260.84 -2.83334 1244.48 8.49999 1237.94L59.5 1208.49C70.8333 1201.95 85 1210.13 85 1223.22L85 1282.1C85 1295.19 70.8333 1303.37 59.5 1296.83L8.49998 1267.38Z" fill="#0A0A0A"/>
<path d="M8.49998 1240.38C-2.83335 1233.84 -2.83334 1217.48 8.49999 1210.94L59.5 1181.49C70.8333 1174.95 85 1183.13 85 1196.22L85 1255.1C85 1268.19 70.8333 1276.37 59.5 1269.83L8.49998 1240.38Z" fill="#0A0A0A"/>
<path d="M8.49998 1213.38C-2.83335 1206.84 -2.83334 1190.48 8.49999 1183.94L59.5 1154.49C70.8333 1147.95 85 1156.13 85 1169.22L85 1228.1C85 1241.19 70.8333 1249.37 59.5 1242.83L8.49998 1213.38Z" fill="#0A0A0A"/>
<path d="M8.49998 1186.38C-2.83335 1179.84 -2.83334 1163.48 8.49999 1156.94L59.5 1127.49C70.8333 1120.95 85 1129.13 85 1142.22L85 1201.1C85 1214.19 70.8333 1222.37 59.5 1215.83L8.49998 1186.38Z" fill="#0A0A0A"/>
<path d="M8.49998 1159.38C-2.83335 1152.84 -2.83334 1136.48 8.49999 1129.94L59.5 1100.49C70.8333 1093.95 85 1102.13 85 1115.22L85 1174.1C85 1187.19 70.8333 1195.37 59.5 1188.83L8.49998 1159.38Z" fill="#0A0A0A"/>
<path d="M8.49998 1132.38C-2.83335 1125.84 -2.83334 1109.48 8.49999 1102.94L59.5 1073.49C70.8333 1066.95 85 1075.13 85 1088.22L85 1147.1C85 1160.19 70.8333 1168.37 59.5 1161.83L8.49998 1132.38Z" fill="#0A0A0A"/>
<path d="M8.49998 1105.38C-2.83335 1098.84 -2.83334 1082.48 8.49999 1075.94L59.5 1046.49C70.8333 1039.95 85 1048.13 85 1061.22L85 1120.1C85 1133.19 70.8333 1141.37 59.5 1134.83L8.49998 1105.38Z" fill="#0A0A0A"/>
<path d="M8.49998 1078.38C-2.83335 1071.84 -2.83334 1055.48 8.49999 1048.94L59.5 1019.49C70.8333 1012.95 85 1021.13 85 1034.22L85 1093.1C85 1106.19 70.8333 1114.37 59.5 1107.83L8.49998 1078.38Z" fill="#0A0A0A"/>
<path d="M8.49998 1051.38C-2.83335 1044.84 -2.83334 1028.48 8.49999 1021.94L59.5 992.493C70.8333 985.949 85 994.128 85 1007.22L85 1066.1C85 1079.19 70.8333 1087.37 59.5 1080.83L8.49998 1051.38Z" fill="#0A0A0A"/>
<path d="M8.49998 1024.38C-2.83335 1017.84 -2.83334 1001.48 8.49999 994.937L59.5 965.493C70.8333 958.949 85 967.128 85 980.215L85 1039.1C85 1052.19 70.8333 1060.37 59.5 1053.83L8.49998 1024.38Z" fill="#0A0A0A"/>
<path d="M8.49998 997.382C-2.83335 990.839 -2.83334 974.481 8.49999 967.937L59.5 938.493C70.8333 931.949 85 940.128 85 953.215L85 1012.1C85 1025.19 70.8333 1033.37 59.5 1026.83L8.49998 997.382Z" fill="#0A0A0A"/>
<path d="M8.49998 970.382C-2.83335 963.839 -2.83334 947.481 8.49999 940.937L59.5 911.493C70.8333 904.949 85 913.128 85 926.215L85 985.105C85 998.191 70.8333 1006.37 59.5 999.827L8.49998 970.382Z" fill="#0A0A0A"/>
<path d="M8.49998 943.382C-2.83335 936.839 -2.83334 920.481 8.49999 913.937L59.5 884.493C70.8333 877.949 85 886.128 85 899.215L85 958.105C85 971.191 70.8333 979.371 59.5 972.827L8.49998 943.382Z" fill="#0A0A0A"/>
<path d="M8.49998 916.382C-2.83335 909.839 -2.83334 893.481 8.49999 886.937L59.5 857.493C70.8333 850.949 85 859.128 85 872.215L85 931.105C85 944.191 70.8333 952.371 59.5 945.827L8.49998 916.382Z" fill="#0A0A0A"/>
<path d="M8.49998 889.382C-2.83335 882.839 -2.83334 866.481 8.49999 859.937L59.5 830.493C70.8333 823.949 85 832.128 85 845.215L85 904.105C85 917.191 70.8333 925.371 59.5 918.827L8.49998 889.382Z" fill="#0A0A0A"/>
<path d="M8.49998 862.382C-2.83335 855.839 -2.83334 839.481 8.49999 832.937L59.5 803.493C70.8333 796.949 85 805.128 85 818.215L85 877.105C85 890.191 70.8333 898.371 59.5 891.827L8.49998 862.382Z" fill="#0A0A0A"/>
<path d="M8.49998 835.382C-2.83335 828.839 -2.83334 812.481 8.49999 805.937L59.5 776.493C70.8333 769.949 85 778.128 85 791.215L85 850.105C85 863.191 70.8333 871.371 59.5 864.827L8.49998 835.382Z" fill="#0A0A0A"/>
<path d="M8.49998 808.382C-2.83335 801.839 -2.83334 785.481 8.49999 778.937L59.5 749.493C70.8333 742.949 85 751.128 85 764.215L85 823.105C85 836.191 70.8333 844.371 59.5 837.827L8.49998 808.382Z" fill="#0A0A0A"/>
<path d="M8.49998 781.382C-2.83335 774.839 -2.83334 758.481 8.49999 751.937L59.5 722.493C70.8333 715.949 85 724.128 85 737.215L85 796.105C85 809.191 70.8333 817.371 59.5 810.827L8.49998 781.382Z" fill="#0A0A0A"/>
<path d="M8.49998 754.382C-2.83335 747.839 -2.83334 731.481 8.49999 724.937L59.5 695.493C70.8333 688.949 85 697.128 85 710.215L85 769.105C85 782.191 70.8333 790.371 59.5 783.827L8.49998 754.382Z" fill="#0A0A0A"/>
<path d="M8.49998 727.382C-2.83335 720.839 -2.83334 704.481 8.49999 697.937L59.5 668.493C70.8333 661.949 85 670.128 85 683.215L85 742.105C85 755.191 70.8333 763.371 59.5 756.827L8.49998 727.382Z" fill="#0A0A0A"/>
<path d="M8.49998 700.382C-2.83335 693.839 -2.83334 677.481 8.49999 670.937L59.5 641.493C70.8333 634.949 85 643.128 85 656.215L85 715.105C85 728.191 70.8333 736.371 59.5 729.827L8.49998 700.382Z" fill="#0A0A0A"/>
<path d="M8.49998 673.382C-2.83335 666.839 -2.83334 650.481 8.49999 643.937L59.5 614.493C70.8333 607.949 85 616.128 85 629.215L85 688.105C85 701.191 70.8333 709.371 59.5 702.827L8.49998 673.382Z" fill="#0A0A0A"/>
<path d="M8.49998 646.382C-2.83335 639.839 -2.83334 623.481 8.49999 616.937L59.5 587.493C70.8333 580.949 85 589.128 85 602.215L85 661.105C85 674.191 70.8333 682.371 59.5 675.827L8.49998 646.382Z" fill="#0A0A0A"/>
<path d="M8.49998 619.382C-2.83335 612.839 -2.83334 596.481 8.49999 589.937L59.5 560.493C70.8333 553.949 85 562.128 85 575.215L85 634.105C85 647.191 70.8333 655.371 59.5 648.827L8.49998 619.382Z" fill="#0A0A0A"/>
<path d="M8.49998 592.382C-2.83335 585.839 -2.83334 569.481 8.49999 562.937L59.5 533.493C70.8333 526.949 85 535.128 85 548.215L85 607.105C85 620.191 70.8333 628.371 59.5 621.827L8.49998 592.382Z" fill="#0A0A0A"/>
<path d="M8.49998 565.382C-2.83335 558.839 -2.83334 542.481 8.49999 535.937L59.5 506.493C70.8333 499.949 85 508.128 85 521.215L85 580.105C85 593.191 70.8333 601.371 59.5 594.827L8.49998 565.382Z" fill="#0A0A0A"/>
<path d="M8.49998 538.382C-2.83335 531.839 -2.83334 515.481 8.49999 508.937L59.5 479.493C70.8333 472.949 85 481.128 85 494.215L85 553.105C85 566.191 70.8333 574.371 59.5 567.827L8.49998 538.382Z" fill="#0A0A0A"/>
<path d="M8.49998 511.382C-2.83335 504.839 -2.83334 488.481 8.49999 481.937L59.5 452.493C70.8333 445.949 85 454.128 85 467.215L85 526.105C85 539.191 70.8333 547.371 59.5 540.827L8.49998 511.382Z" fill="#0A0A0A"/>
<path d="M8.49998 484.382C-2.83335 477.839 -2.83334 461.481 8.49999 454.937L59.5 425.493C70.8333 418.949 85 427.128 85 440.215L85 499.105C85 512.191 70.8333 520.371 59.5 513.827L8.49998 484.382Z" fill="#0A0A0A"/>
<path d="M8.49998 457.382C-2.83335 450.839 -2.83334 434.481 8.49999 427.937L59.5 398.493C70.8333 391.949 85 400.128 85 413.215L85 472.105C85 485.191 70.8333 493.371 59.5 486.827L8.49998 457.382Z" fill="#0A0A0A"/>
<path d="M8.49998 430.382C-2.83335 423.839 -2.83334 407.481 8.49999 400.937L59.5 371.493C70.8333 364.949 85 373.128 85 386.215L85 445.105C85 458.191 70.8333 466.371 59.5 459.827L8.49998 430.382Z" fill="#0A0A0A"/>
<path d="M8.49998 403.382C-2.83335 396.839 -2.83334 380.481 8.49999 373.937L59.5 344.493C70.8333 337.949 85 346.128 85 359.215L85 418.105C85 431.191 70.8333 439.371 59.5 432.827L8.49998 403.382Z" fill="#0A0A0A"/>
<path d="M8.49998 376.382C-2.83335 369.839 -2.83334 353.481 8.49999 346.937L59.5 317.493C70.8333 310.949 85 319.128 85 332.215L85 391.105C85 404.191 70.8333 412.371 59.5 405.827L8.49998 376.382Z" fill="#0A0A0A"/>
<path d="M8.49998 349.382C-2.83335 342.839 -2.83334 326.481 8.49999 319.937L59.5 290.493C70.8333 283.949 85 292.128 85 305.215L85 364.105C85 377.191 70.8333 385.371 59.5 378.827L8.49998 349.382Z" fill="#0A0A0A"/>
<path d="M8.49998 322.382C-2.83335 315.839 -2.83334 299.481 8.49999 292.937L59.5 263.493C70.8333 256.949 85 265.128 85 278.215L85 337.105C85 350.191 70.8333 358.371 59.5 351.827L8.49998 322.382Z" fill="#0A0A0A"/>
<path d="M8.49998 295.382C-2.83335 288.839 -2.83334 272.481 8.49999 265.937L59.5 236.493C70.8333 229.949 85 238.128 85 251.215L85 310.105C85 323.191 70.8333 331.371 59.5 324.827L8.49998 295.382Z" fill="#0A0A0A"/>
<path d="M8.49998 268.382C-2.83335 261.839 -2.83334 245.481 8.49999 238.937L59.5 209.493C70.8333 202.949 85 211.128 85 224.215L85 283.105C85 296.191 70.8333 304.371 59.5 297.827L8.49998 268.382Z" fill="#0A0A0A"/>
<path d="M8.49998 241.382C-2.83335 234.839 -2.83334 218.481 8.49999 211.937L59.5 182.493C70.8333 175.949 85 184.128 85 197.215L85 256.105C85 269.191 70.8333 277.371 59.5 270.827L8.49998 241.382Z" fill="#0A0A0A"/>
<path d="M8.49998 214.382C-2.83335 207.839 -2.83334 191.481 8.49999 184.937L59.5 155.493C70.8333 148.949 85 157.128 85 170.215L85 229.105C85 242.191 70.8333 250.371 59.5 243.827L8.49998 214.382Z" fill="#0A0A0A"/>
<path d="M8.49998 187.382C-2.83335 180.839 -2.83334 164.481 8.49999 157.937L59.5 128.493C70.8333 121.949 85 130.128 85 143.215L85 202.105C85 215.191 70.8333 223.371 59.5 216.827L8.49998 187.382Z" fill="#0A0A0A"/>
<path d="M8.49998 160.382C-2.83335 153.839 -2.83334 137.481 8.49999 130.937L59.5 101.493C70.8333 94.9493 85 103.128 85 116.215L85 175.105C85 188.191 70.8333 196.371 59.5 189.827L8.49998 160.382Z" fill="#0A0A0A"/>
<path d="M8.49998 133.382C-2.83335 126.839 -2.83334 110.481 8.49999 103.937L59.5 74.4926C70.8333 67.9493 85 76.1285 85 89.2151L85 148.105C85 161.191 70.8333 169.371 59.5 162.827L8.49998 133.382Z" fill="#0A0A0A"/>
<path d="M13.3983 107.52C-3.76248 97.9986 -3.76245 73.3213 13.3984 63.7995L52.3706 42.1755C69.0337 32.9299 89.5 44.9797 89.5 64.0359L89.5 107.284C89.5 126.34 69.0337 138.39 52.3706 129.144L13.3983 107.52Z" fill="#0A0A0A"/>
<path d="M13.3983 68.5203C-3.76248 58.9986 -3.76245 34.3213 13.3984 24.7995L52.3706 3.1755C69.0337 -6.0701 89.5 5.97974 89.5 25.0359L89.5 68.284C89.5 87.3401 69.0337 99.3899 52.3706 90.1443L13.3983 68.5203Z" fill="#0A0A0A"/>
</svg>
