<svg width="103" height="178" viewBox="0 0 103 178" fill="none" xmlns="http://www.w3.org/2000/svg">
<path d="M77.0885 176.41C77.4135 177.465 78.5328 178.058 79.5885 177.733L96.7917 172.436C97.8473 172.111 98.4397 170.992 98.1147 169.937C97.7896 168.881 96.6704 168.289 95.6147 168.614L80.323 173.321L75.6152 158.03C75.2902 156.974 74.1709 156.382 73.1153 156.707C72.0596 157.032 71.4673 158.151 71.7923 159.207L77.0885 176.41ZM55 0.821289L53.1764 -3.56436e-05C52.6068 1.26458 52.0147 2.46896 51.4023 3.61818L53.1674 4.55864L54.9325 5.4991C55.587 4.27076 56.2181 2.98688 56.8236 1.64261L55 0.821289ZM48.7451 11.5888L47.1358 10.4014C45.4804 12.6449 43.7324 14.6437 41.9211 16.4651L43.3392 17.8754L44.7573 19.2857C46.6946 17.3377 48.5728 15.1909 50.3545 12.7762L48.7451 11.5888ZM37.1312 23.3808L35.8887 21.8136C33.7232 23.5304 31.5171 25.1127 29.2976 26.6673L30.445 28.3054L31.5924 29.9436C33.8311 28.3755 36.1142 26.7394 38.3738 24.9479L37.1312 23.3808ZM23.6543 33.087L22.4756 31.4713C20.1982 33.1326 17.961 34.8748 15.8385 36.8048L17.1841 38.2846L18.5296 39.7643C20.5068 37.9663 22.6194 36.3176 24.833 34.7027L23.6543 33.087ZM11.5567 44.371L9.96498 43.1601C8.28727 45.3652 6.76579 47.813 5.44547 50.5871L7.25137 51.4466L9.05726 52.3061C10.2554 49.7887 11.6316 47.5756 13.1484 45.582L11.5567 44.371ZM4.3889 59.2462L2.45954 58.7194C1.75947 61.2831 1.19716 64.0647 0.787865 67.0986L2.76991 67.366L4.75196 67.6334C5.13965 64.7596 5.66857 62.1523 6.31826 59.7731L4.3889 59.2462ZM2.07724 75.6468L0.0786774 75.5709C0.0265433 76.9432 0 78.3593 0 79.8213H2H4C4 78.4077 4.02567 77.0423 4.07579 75.7227L2.07724 75.6468ZM2 79.8213H0C0 81.3003 0.0717623 82.7041 0.21356 84.0356L2.20231 83.8238L4.19107 83.612C4.06553 82.4332 4 81.1714 4 79.8213H2ZM4.11205 91.303L2.28775 92.1227C3.55301 94.9386 5.31278 97.209 7.48054 98.9997L8.75428 97.4578L10.028 95.9159C8.33921 94.5208 6.9534 92.7467 5.93635 90.4832L4.11205 91.303ZM15.6313 101.069L15.028 102.976C17.5302 103.767 20.2392 104.247 23.0779 104.5L23.2556 102.508L23.4333 100.516C20.8069 100.282 18.3951 99.8456 16.2346 99.1621L15.6313 101.069ZM31.0676 102.692L31.1278 104.691C33.7032 104.614 36.3543 104.425 39.0427 104.167L38.8515 102.176L38.6603 100.185C36.0337 100.438 33.4731 100.619 31.0074 100.693L31.0676 102.692ZM46.6224 101.281L46.88 103.264C49.4623 102.929 52.0609 102.565 54.6344 102.206L54.3583 100.225L54.0821 98.2441C51.502 98.6038 48.9244 98.9653 46.3648 99.2977L46.6224 101.281ZM62.0997 99.182L62.3498 101.166C64.9724 100.836 67.5388 100.547 70.022 100.335L69.8521 98.3423L69.6822 96.3495C67.1273 96.5673 64.5039 96.8631 61.8496 97.1977L62.0997 99.182ZM77.6734 97.9651L77.6775 99.9651C80.3681 99.9597 82.8625 100.118 85.1219 100.489L85.4457 98.5149L85.7696 96.5413C83.2354 96.1255 80.5117 95.9594 77.6694 95.9652L77.6734 97.9651ZM92.8205 100.903L91.8532 102.654C93.854 103.759 95.4343 105.251 96.5584 107.247L98.3011 106.266L100.044 105.285C98.5231 102.584 96.3777 100.584 93.7877 99.1526L92.8205 100.903ZM100.444 113.728L98.4523 113.909C98.641 115.992 98.5877 118.396 98.2448 121.166L100.23 121.412L102.215 121.657C102.585 118.664 102.655 115.969 102.436 113.548L100.444 113.728ZM98.7747 129.052L96.8334 128.571C96.2712 130.841 95.5645 133.28 94.7023 135.902L96.6022 136.527L98.5021 137.152C99.3913 134.448 100.127 131.912 100.716 129.533L98.7747 129.052ZM93.952 143.899L92.087 143.176C91.193 145.484 90.1988 147.908 89.0996 150.452L90.9356 151.245L92.7715 152.038C93.8891 149.452 94.9029 146.981 95.817 144.621L93.952 143.899ZM87.817 158.181L86.0042 157.336C84.9482 159.602 83.8188 161.952 82.6135 164.389L84.4062 165.275L86.1988 166.162C87.417 163.7 88.5599 161.322 89.6298 159.026L87.817 158.181ZM80.8987 172.196L79.123 171.276C78.5091 172.461 77.8789 173.664 77.2323 174.886L79 175.821L80.7677 176.757C81.4196 175.525 82.0551 174.312 82.6744 173.117L80.8987 172.196Z" fill="#817C7C"/>
</svg>
