<svg width="127" height="176" viewBox="0 0 127 176" fill="none" xmlns="http://www.w3.org/2000/svg">
<path opacity="0.2" d="M142.863 60.225L125.421 77.7769L128.783 81.1319C129.805 82.1535 130.617 83.3667 131.17 84.7021C131.724 86.0374 132.009 87.4688 132.009 88.9144C132.009 90.36 131.724 91.7914 131.17 93.1267C130.617 94.4621 129.805 95.6753 128.783 96.6969L122.595 102.884C122.084 103.396 121.478 103.801 120.81 104.078C120.142 104.355 119.427 104.497 118.704 104.497C117.981 104.497 117.265 104.355 116.598 104.078C115.93 103.801 115.323 103.396 114.813 102.884L73.095 61.1531C72.5836 60.6423 72.178 60.0358 71.9012 59.3681C71.6244 58.7004 71.4819 57.9847 71.4819 57.2619C71.4819 56.5391 71.6244 55.8234 71.9012 55.1557C72.178 54.488 72.5836 53.8815 73.095 53.3706L79.2825 47.1831C80.304 46.1614 81.5167 45.351 82.8515 44.798C84.1862 44.245 85.6168 43.9604 87.0616 43.9604C88.5063 43.9604 89.9369 44.245 91.2717 44.798C92.6064 45.351 93.8192 46.1614 94.8406 47.1831L98.1956 50.545L115.383 33.2819C122.801 25.8638 134.888 25.41 142.505 32.5944C144.378 34.3647 145.876 36.4931 146.911 38.8532C147.946 41.2134 148.496 43.7573 148.529 46.3341C148.563 48.9109 148.078 51.4682 147.105 53.8543C146.131 56.2404 144.689 58.4068 142.863 60.225Z" fill="#817C7C" fill-opacity="0.8"/>
<path d="M154 46.2688C153.963 42.9588 153.258 39.6903 151.928 36.659C150.597 33.6278 148.669 30.8961 146.259 28.6275C136.634 19.4975 121.014 19.8413 111.457 29.4044L98.1749 42.7625C95.0381 39.9035 90.9201 38.3632 86.677 38.4618C82.4338 38.5604 78.3919 40.2903 75.3912 43.2919L69.2037 49.4794C68.1809 50.501 67.3696 51.7142 66.816 53.0496C66.2625 54.3849 65.9775 55.8163 65.9775 57.2619C65.9775 58.7075 66.2625 60.1389 66.816 61.4743C67.3696 62.8096 68.1809 64.0228 69.2037 65.0444L70.5787 66.4607L35.5162 101.523C32.1412 104.872 29.6983 109.043 28.4287 113.625C27.1591 118.206 27.1067 123.04 28.2768 127.648L22.7768 140.305C22.0098 142.044 21.7877 143.975 22.1399 145.843C22.4922 147.711 23.4022 149.428 24.7499 150.769C26.3089 152.338 28.3069 153.398 30.4804 153.809C32.654 154.22 34.9011 153.963 36.9256 153.072L48.9706 147.813C53.4959 148.836 58.207 148.696 62.6631 147.403C67.1191 146.11 71.1744 143.708 74.4493 140.422L109.512 105.359L110.928 106.776C112.991 108.837 115.788 109.995 118.704 109.995C121.62 109.995 124.417 108.837 126.479 106.776L132.667 100.588C135.674 97.5835 137.405 93.5343 137.5 89.2846C137.594 85.035 136.045 80.9126 133.176 77.7769L146.754 64.1163C149.101 61.7826 150.953 58.9989 152.198 55.932C153.443 52.8651 154.056 49.5783 154 46.2688ZM66.6874 132.688C64.5709 134.808 61.9168 136.313 59.0099 137.04C56.103 137.766 53.0531 137.688 50.1874 136.813C48.931 136.425 47.5773 136.501 46.3718 137.026L33.9281 142.464L39.1874 130.219C39.7332 128.969 39.7944 127.56 39.3593 126.266C38.3626 123.354 38.2048 120.22 38.9037 117.222C39.6027 114.225 41.1304 111.484 43.3124 109.313L78.3749 74.25L101.709 97.625L66.6874 132.688ZM138.964 56.375L121.522 73.92C120.494 74.9511 119.916 76.348 119.916 77.8044C119.916 79.2608 120.494 80.6577 121.522 81.6888L124.884 85.0507C125.396 85.5615 125.801 86.168 126.078 86.8357C126.355 87.5034 126.497 88.2191 126.497 88.9419C126.497 89.6647 126.355 90.3804 126.078 91.0481C125.801 91.7158 125.396 92.3224 124.884 92.8332L118.697 99.0207L76.9999 57.2413L83.1874 51.0538C84.2188 50.0231 85.6172 49.4441 87.0752 49.4441C88.5333 49.4441 89.9317 50.0231 90.9631 51.0538L94.3249 54.4157C95.3556 55.4452 96.7526 56.0237 98.2093 56.0244C98.9327 56.0232 99.6488 55.8792 100.317 55.6008C100.984 55.3224 101.591 54.915 102.101 54.4019L119.247 37.1525C124.616 31.7763 133.341 31.5288 138.696 36.5957C140.034 37.8593 141.104 39.3785 141.844 41.0634C142.584 42.7483 142.978 44.5646 143.003 46.4046C143.028 48.2446 142.684 50.0709 141.99 51.7753C141.296 53.4796 140.267 55.0274 138.964 56.3269V56.375Z" fill="#817C7C" fill-opacity="0.8"/>
</svg>
