<svg width="219" height="224" viewBox="0 0 219 224" fill="none" xmlns="http://www.w3.org/2000/svg">
<path d="M101.768 3.77032C121.385 -0.797628 139.061 -1.21488 154.795 2.51855C170.493 6.09944 183.495 13.3637 193.8 24.3112C204.257 35.223 211.422 48.9921 215.294 65.6185C218.561 79.6518 219.24 93.323 217.33 106.632C215.574 119.906 211.428 131.243 204.892 140.644C198.321 149.893 189.901 155.713 179.632 158.104C172.275 159.817 165.825 159.872 160.282 158.268C154.891 156.629 150.767 153.489 147.909 148.847C140.091 161.763 127.599 170.22 110.434 174.217C101.085 176.394 92.1937 176.374 83.7604 174.156C75.4803 171.903 68.3421 167.616 62.3459 161.293C56.4675 154.783 52.3916 146.646 50.1185 136.884C47.2416 124.528 47.2953 112.616 50.2799 101.147C53.3821 89.4901 59.0684 79.5629 67.3388 71.3658C75.5736 63.016 85.7449 57.4315 97.8527 54.6123C116.091 50.3655 130.439 53.698 140.897 64.6098L140.243 46.189L165.991 40.1935L168.349 122.138C168.351 124.228 168.53 126.036 168.885 127.561C170.412 134.12 174.624 136.597 181.521 134.991C187.192 133.67 191.516 129.689 194.493 123.045C197.434 116.25 199.025 108.161 199.264 98.7785C199.467 89.2436 198.539 80.0526 196.479 71.2056C191.684 50.6132 181.252 35.9968 165.183 27.3564C149.268 18.6802 128.666 17.2862 103.377 23.1746C83.1468 27.8853 66.2628 36.5605 52.7256 49.2003C39.3061 61.6517 30.0986 76.5798 25.1032 93.9844C20.261 111.353 20.042 129.495 24.4463 148.409C27.6784 162.29 33.3552 173.833 41.4766 183.037C49.7513 192.206 60.1576 198.386 72.6955 201.577C85.2333 204.769 99.3953 204.526 115.181 200.851C131.734 196.996 145.754 190.596 157.243 181.649L165.59 198.761C159.404 203.418 152.061 207.62 143.563 211.368C135.253 215.232 126.807 218.164 118.224 220.162C98.9129 224.659 81.2782 224.906 65.3199 220.903C49.3616 216.9 36.1002 209.214 25.5358 197.845C14.9714 186.475 7.68243 172.172 3.66892 154.936C-1.65876 132.055 -1.18384 110.156 5.09363 89.2364C11.3356 68.1646 22.8101 50.1358 39.5172 35.1499C56.3421 19.9758 77.0922 9.51595 101.768 3.77032ZM111.933 150.471C119.596 148.686 126.049 145.174 131.292 139.933C136.534 134.692 140.078 128.399 141.922 121.055C143.731 113.559 143.694 105.768 141.812 97.6836C139.716 88.684 135.418 82.3681 128.918 78.736C122.381 74.9514 114.362 74.1654 104.86 76.378C97.3498 78.1266 91.0325 81.5273 85.9076 86.5799C80.9006 91.4444 77.4748 97.5487 75.6302 104.893C73.7857 112.237 73.858 120.18 75.847 128.722C77.978 137.874 82.1584 144.378 88.3882 148.234C94.7357 151.902 102.584 152.647 111.933 150.471Z" fill="#E1E1E1"/>
</svg>
