<svg width="761" height="376" viewBox="0 0 761 376" fill="none" xmlns="http://www.w3.org/2000/svg">
<path opacity="0.4" d="M759.087 6.13958L761.003 3.83068L756.385 -0.000236988L754.469 2.30866L756.778 4.22412L759.087 6.13958ZM452.278 182.224L451.682 185.164L452.278 182.224ZM2.79425 372.533C2.96473 374.181 4.43896 375.379 6.08702 375.208L32.9437 372.43C34.5918 372.259 35.7896 370.785 35.6191 369.137C35.4486 367.489 33.9744 366.291 32.3263 366.462L8.4537 368.931L5.98412 345.059C5.81363 343.411 4.33941 342.213 2.69135 342.383C1.04329 342.554 -0.154521 344.028 0.0159678 345.676L2.79425 372.533ZM5.77832 372.224L8.10666 374.116C9.33558 372.603 10.568 371.092 11.8042 369.581L9.48241 367.681L7.1606 365.781C5.91985 367.298 4.68303 368.815 3.44998 370.332L5.77832 372.224ZM16.9528 358.622L19.2595 360.54C21.753 357.541 24.2626 354.549 26.7896 351.566L24.5005 349.627L22.2114 347.688C19.6717 350.686 17.1504 353.692 14.646 356.704L16.9528 358.622ZM32.1318 340.711L34.4006 342.674C36.9508 339.726 39.5196 336.79 42.1083 333.868L39.8627 331.878L37.6171 329.889C35.012 332.83 32.4278 335.784 29.8631 338.748L32.1318 340.711ZM47.7033 323.141L49.9228 325.16C52.5448 322.277 55.1879 319.41 57.8534 316.562L55.663 314.512L53.4727 312.462C50.7867 315.332 48.1242 318.22 45.4838 321.123L47.7033 323.141ZM63.7511 306.002L65.9092 308.086C68.6146 305.285 71.3435 302.504 74.0973 299.747L71.9749 297.627L69.8524 295.507C67.0737 298.289 64.3211 301.093 61.5931 303.918L63.7511 306.002ZM80.3451 289.398L82.4285 291.556C85.2293 288.853 88.0562 286.176 90.9104 283.527L88.8697 281.328L86.8289 279.129C83.945 281.805 81.0896 284.51 78.2616 287.239L80.3451 289.398ZM97.5561 273.431L99.5505 275.673C102.457 273.086 105.391 270.531 108.356 268.009L106.411 265.724L104.467 263.439C101.468 265.991 98.5 268.576 95.5618 271.19L97.5561 273.431ZM115.438 258.223L117.328 260.553C120.346 258.105 123.395 255.693 126.476 253.318L124.644 250.942L122.813 248.566C119.691 250.971 116.604 253.415 113.549 255.893L115.438 258.223ZM134.033 243.897L135.801 246.32C138.937 244.031 142.106 241.781 145.31 239.574L143.607 237.104L141.905 234.633C138.656 236.872 135.442 239.153 132.264 241.474L134.033 243.897ZM153.369 230.579L155 233.097C158.252 230.99 161.54 228.927 164.864 226.909L163.308 224.344L161.751 221.78C158.376 223.828 155.038 225.923 151.737 228.062L153.369 230.579ZM173.431 218.41L174.908 221.021C178.278 219.114 181.685 217.254 185.131 215.445L183.736 212.789L182.341 210.133C178.839 211.972 175.377 213.861 171.953 215.799L173.431 218.41ZM194.222 207.494L195.531 210.193C199.008 208.507 202.524 206.872 206.081 205.289L204.861 202.548L203.641 199.807C200.024 201.417 196.449 203.08 192.913 204.794L194.222 207.494ZM215.653 197.957L216.781 200.737C220.359 199.285 223.976 197.886 227.635 196.542L226.6 193.726L225.566 190.91C221.844 192.277 218.164 193.701 214.525 195.178L215.653 197.957ZM237.699 189.861L238.637 192.71C242.299 191.504 246.001 190.352 249.744 189.257L248.902 186.378L248.06 183.499C244.251 184.613 240.485 185.784 236.76 187.011L237.699 189.861ZM260.205 183.277L260.95 186.183C264.683 185.226 268.457 184.324 272.273 183.48L271.625 180.551L270.977 177.622C267.096 178.48 263.257 179.397 259.46 180.371L260.205 183.277ZM283.161 178.199L283.711 181.148C287.484 180.443 291.296 179.794 295.149 179.202L294.693 176.237L294.238 173.272C290.321 173.873 286.445 174.533 282.61 175.25L283.161 178.199ZM306.313 174.64L306.675 177.618C310.507 177.153 314.38 176.744 318.292 176.392L318.024 173.404L317.755 170.416C313.78 170.773 309.846 171.189 305.952 171.662L306.313 174.64ZM329.697 172.531L329.876 175.526C333.712 175.296 337.587 175.121 341.501 175.002L341.41 172.003L341.318 169.005C337.346 169.126 333.413 169.303 329.518 169.536L329.697 172.531ZM353.202 171.813L353.208 174.813C357.037 174.805 360.903 174.85 364.806 174.948L364.881 171.949L364.957 168.95C361 168.851 357.08 168.805 353.196 168.813L353.202 171.813ZM376.616 172.402L376.461 175.398C380.314 175.597 384.202 175.847 388.127 176.151L388.358 173.159L388.589 170.168C384.614 169.861 380.675 169.607 376.771 169.406L376.616 172.402ZM400 174.203L399.696 177.187C403.548 177.579 407.435 178.021 411.356 178.514L411.73 175.538L412.104 172.561C408.137 172.062 404.203 171.615 400.304 171.218L400 174.203ZM423.292 177.124L422.851 180.091C426.671 180.659 430.523 181.274 434.408 181.937L434.913 178.98L435.418 176.023C431.491 175.352 427.596 174.73 423.733 174.156L423.292 177.124ZM446.443 181.072L445.877 184.018C447.804 184.389 449.739 184.771 451.682 185.164L452.278 182.224L452.874 179.284C450.911 178.886 448.956 178.5 447.009 178.126L446.443 181.072ZM452.278 182.224L451.682 185.164C453.719 185.577 455.737 185.973 457.736 186.353L458.296 183.406L458.856 180.458C456.881 180.083 454.887 179.692 452.874 179.284L452.278 182.224ZM470.035 185.48L469.552 188.44C473.647 189.108 477.662 189.703 481.599 190.227L481.994 187.253L482.39 184.279C478.513 183.764 474.557 183.177 470.517 182.519L470.035 185.48ZM493.964 188.647L493.667 191.633C497.78 192.042 501.803 192.369 505.741 192.614L505.928 189.62L506.115 186.626C502.253 186.385 498.303 186.064 494.261 185.662L493.964 188.647ZM517.902 190.122L517.839 193.122C521.978 193.208 526.018 193.199 529.964 193.097L529.886 190.098L529.809 187.099C525.959 187.198 522.013 187.207 517.964 187.123L517.902 190.122ZM541.879 189.479L542.114 192.47C546.266 192.144 550.309 191.708 554.249 191.166L553.839 188.194L553.43 185.222C549.61 185.748 545.683 186.171 541.645 186.488L541.879 189.479ZM565.685 186.177L566.285 189.116C570.363 188.284 574.325 187.328 578.18 186.255L577.375 183.365L576.57 180.475C572.853 181.51 569.028 182.433 565.085 183.238L565.685 186.177ZM588.838 179.709L589.857 182.531C593.755 181.124 597.538 179.588 601.216 177.929L599.983 175.194L598.749 172.46C595.212 174.055 591.572 175.533 587.82 176.887L588.838 179.709ZM610.736 169.832L612.178 172.463C615.778 170.491 619.275 168.394 622.68 166.181L621.045 163.666L619.411 161.15C616.127 163.284 612.759 165.303 609.295 167.201L610.736 169.832ZM630.88 156.764L632.688 159.159C635.933 156.709 639.097 154.151 642.192 151.49L640.237 149.215L638.281 146.94C635.277 149.523 632.211 152.001 629.073 154.37L630.88 156.764ZM649.12 141.128L651.198 143.291C654.102 140.5 656.95 137.62 659.754 134.656L657.576 132.594L655.397 130.532C652.652 133.432 649.87 136.245 647.04 138.965L649.12 141.128ZM665.658 123.7L667.916 125.676C670.552 122.663 673.158 119.579 675.743 116.429L673.425 114.525L671.106 112.622C668.556 115.728 665.99 118.764 663.4 121.725L665.658 123.7ZM680.937 105.137L683.301 106.984C685.756 103.842 688.202 100.645 690.648 97.3978L688.252 95.5927L685.856 93.7876C683.428 97.011 681.003 100.18 678.573 103.29L680.937 105.137ZM695.427 85.9418L697.844 87.7184C700.199 84.5144 702.562 81.2685 704.94 77.9863L702.511 76.2259L700.082 74.4655C697.708 77.741 695.354 80.9754 693.009 84.1652L695.427 85.9418ZM709.553 66.4805L711.986 68.2358C714.307 65.0177 716.65 61.7708 719.022 58.4967L716.593 56.7365L714.164 54.9764C711.787 58.2561 709.441 61.5078 707.12 64.7252L709.553 66.4805ZM723.669 47.0209L726.089 48.7947C728.431 45.6001 730.806 42.3851 733.219 39.153L730.815 37.358L728.412 35.563C725.986 38.8117 723.6 42.0411 721.25 45.2472L723.669 47.0209ZM738.06 27.7695L740.442 29.5924C742.846 26.4505 745.291 23.2961 747.784 20.132L745.427 18.2756L743.07 16.4192C740.559 19.6075 738.096 22.7844 735.677 25.9467L738.06 27.7695ZM752.939 8.89449L755.265 10.7892C756.527 9.24074 757.8 7.69075 759.087 6.13958L756.778 4.22412L754.469 2.30866C753.171 3.87405 751.886 5.4379 750.613 6.99981L752.939 8.89449Z" fill="#E1E1E1"/>
</svg>
